<svg id="Group_2062" data-name="Group 2062" xmlns="http://www.w3.org/2000/svg" width="52.522" height="61.275" viewBox="0 0 52.522 61.275">
  <path id="Path_2770" data-name="Path 2770" d="M19.7,43.768H0V0H30.638V2.189H20.79A1.1,1.1,0,0,0,19.7,3.282ZM3.282,1.094A1.1,1.1,0,0,0,2.188,2.189V8.753a1.094,1.094,0,1,0,2.189,0V2.189A1.1,1.1,0,0,0,3.282,1.094Z" transform="translate(0 17.507)" fill="#059fe2"/>
  <path id="Path_2771" data-name="Path 2771" d="M30.638,32.826H0V0H30.638ZM15.319,5.471A12.036,12.036,0,1,0,27.355,17.507,12.05,12.05,0,0,0,15.319,5.471Z" transform="translate(21.884 28.449)" fill="#059fe2"/>
  <path id="Path_2772" data-name="Path 2772" d="M9.848,19.7A9.843,9.843,0,1,1,19.7,9.848,9.859,9.859,0,0,1,9.848,19.7Zm0-18.238a8.413,8.413,0,0,0-8.39,8.39,1.094,1.094,0,1,0,2.189,0,6.217,6.217,0,0,1,6.2-6.2,1.094,1.094,0,1,0,0-2.189Z" transform="translate(27.355 36.109)" fill="#059fe2"/>
  <path id="Path_2773" data-name="Path 2773" d="M30.638,15.319H0V0H30.638V15.318ZM3.282,5.471A1.1,1.1,0,0,0,2.188,6.565V13.13a1.094,1.094,0,0,0,2.189,0V6.565A1.1,1.1,0,0,0,3.282,5.471Z" fill="#059fe2"/>
  <path id="Path_2774" data-name="Path 2774" d="M25.167,4.377H0V0H25.167V4.376ZM8.753,1.094a1.094,1.094,0,1,0,0,2.188h2.189a1.094,1.094,0,1,0,0-2.188Zm-5.471,0a1.094,1.094,0,0,0,0,2.188H5.471a1.094,1.094,0,1,0,0-2.188Z" transform="translate(27.355 21.884)" fill="#059fe2"/>
  <path id="Path_2775" data-name="Path 2775" d="M0,0H3.284V4.381H0Z" transform="translate(21.884 21.884)" fill="#059fe2"/>
</svg>
