<svg xmlns="http://www.w3.org/2000/svg" width="60.444" height="49.578" viewBox="0 0 60.444 49.578">
  <g id="Group_2058" data-name="Group 2058" transform="translate(0.001 0.002)">
    <path id="Path_2745" data-name="Path 2745" d="M39,17.707H15.936A15.954,15.954,0,0,1,0,1.77,1.773,1.773,0,0,1,1.771,0H34.917a32.39,32.39,0,0,1,3.962,12.175A29.627,29.627,0,0,1,39,17.706ZM5.312,3.542a1.771,1.771,0,1,0,1.771,1.77A1.772,1.772,0,0,0,5.312,3.542Z" transform="translate(21.37 17.707)" fill="#059fe2"/>
    <path id="Path_2746" data-name="Path 2746" d="M.539,31.87H12.516a1.771,1.771,0,1,1,0,3.541H1.362a32.934,32.934,0,0,0,1.257,3.541H16.057a1.771,1.771,0,1,1,0,3.541H4.359a32.876,32.876,0,0,0,2.074,3.524,9.133,9.133,0,0,0,7.243,3.558H50.432a8.675,8.675,0,0,0,8.094-5.64,26.727,26.727,0,0,0,1.4-4.983H37.307A19.5,19.5,0,0,1,17.828,19.475a5.318,5.318,0,0,1,5.312-5.312H53.95C47.609,5.677,37.395,0,26.682,0,9.958,0-1.852,13.6.238,30.319c.065.521.209,1.033.3,1.551Z" fill="#059fe2"/>
  </g>
</svg>
