<svg xmlns="http://www.w3.org/2000/svg" width="37.5" height="42.857" viewBox="0 0 37.5 42.857">
  <path id="calendar-days" d="M13.393,2.679V5.357H24.107V2.679a2.679,2.679,0,0,1,5.357,0V5.357h4.018A4.018,4.018,0,0,1,37.5,9.375v4.018H0V9.375A4.018,4.018,0,0,1,4.018,5.357H8.036V2.679a2.679,2.679,0,1,1,5.357,0ZM0,16.071H37.5V38.839a4.019,4.019,0,0,1-4.018,4.018H4.018A4.018,4.018,0,0,1,0,38.839Zm5.357,9.375A1.341,1.341,0,0,0,6.7,26.786H9.375a1.343,1.343,0,0,0,1.339-1.339V22.768a1.343,1.343,0,0,0-1.339-1.339H6.7a1.341,1.341,0,0,0-1.339,1.339Zm10.714,0a1.343,1.343,0,0,0,1.339,1.339h2.679a1.343,1.343,0,0,0,1.339-1.339V22.768a1.343,1.343,0,0,0-1.339-1.339H17.411a1.343,1.343,0,0,0-1.339,1.339Zm12.054-4.018a1.343,1.343,0,0,0-1.339,1.339v2.679a1.343,1.343,0,0,0,1.339,1.339H30.8a1.343,1.343,0,0,0,1.339-1.339V22.768A1.343,1.343,0,0,0,30.8,21.429ZM5.357,36.161A1.341,1.341,0,0,0,6.7,37.5H9.375a1.343,1.343,0,0,0,1.339-1.339V33.482a1.343,1.343,0,0,0-1.339-1.339H6.7a1.341,1.341,0,0,0-1.339,1.339Zm12.054-4.018a1.343,1.343,0,0,0-1.339,1.339v2.679A1.343,1.343,0,0,0,17.411,37.5h2.679a1.343,1.343,0,0,0,1.339-1.339V33.482a1.343,1.343,0,0,0-1.339-1.339Zm9.375,4.018A1.343,1.343,0,0,0,28.125,37.5H30.8a1.343,1.343,0,0,0,1.339-1.339V33.482A1.343,1.343,0,0,0,30.8,32.143H28.125a1.343,1.343,0,0,0-1.339,1.339Z" fill="#989898"/>
</svg>
