<svg xmlns="http://www.w3.org/2000/svg" xmlns:xlink="http://www.w3.org/1999/xlink" width="86.404" height="86.414" viewBox="0 0 86.404 86.414">
  <defs>
    <filter id="Path_4" x="0" y="0" width="86.404" height="86.414" filterUnits="userSpaceOnUse">
      <feOffset dy="3" input="SourceAlpha"/>
      <feGaussianBlur stdDeviation="3" result="blur"/>
      <feFlood flood-opacity="0.161"/>
      <feComposite operator="in" in2="blur"/>
      <feComposite in="SourceGraphic"/>
    </filter>
  </defs>
  <g id="Group_59" data-name="Group 59" transform="translate(8.995 6.003)">
    <g transform="matrix(1, 0, 0, 1, -9, -6)" filter="url(#Path_4)">
      <path id="Path_4-2" data-name="Path 4" d="M34.207,0A34.207,34.207,0,1,1,0,34.2,34.2,34.2,0,0,1,34.207,0Z" transform="translate(9 6)" fill="#fff"/>
    </g>
    <g id="shopping-cart" transform="translate(14.175 14.565)">
      <path id="Path_140" data-name="Path 140" d="M0,6.86,2.466,0,18.375,7.388" transform="translate(17.701 4.022)" fill="#7dbcd8"/>
      <path id="Ellipse_26" data-name="Ellipse 26" d="M0,4.956A4.957,4.957,0,1,1,4.957,9.912,4.957,4.957,0,0,1,0,4.956Z" transform="translate(25.401 31.377)" fill="#7dbcd8"/>
      <path id="Ellipse_27" data-name="Ellipse 27" d="M0,4.956A4.957,4.957,0,1,1,4.958,9.912,4.957,4.957,0,0,1,0,4.956Z" transform="translate(10.452 31.377)" fill="#7dbcd8"/>
      <path id="Path_141" data-name="Path 141" d="M11.682,12.2,8.425,2.575H0V0H10.273L14.12,11.379Z" fill="#3c4040"/>
      <path id="Path_142" data-name="Path 142" d="M0,0H35.739L28.927,19.113H5.95Z" transform="translate(5.438 10.044)" fill="#008ed0"/>
      <g id="Group_43" data-name="Group 43" transform="translate(13.394 14.941)">
        <path id="Rectangle_74" data-name="Rectangle 74" d="M0,1.293V0H20.592v1.29Z" fill="#fff"/>
        <path id="Rectangle_75" data-name="Rectangle 75" d="M0,1.293V0H13.4v1.29Z" transform="translate(0 4.249)" fill="#fff"/>
      </g>
    </g>
  </g>
</svg>
