<svg xmlns="http://www.w3.org/2000/svg" width="32.536" height="31.458" viewBox="0 0 32.536 31.458">
  <g id="Group_2029" data-name="Group 2029" transform="translate(0 0)">
    <path id="Path_2717" data-name="Path 2717" d="M31.285,0a1.251,1.251,0,0,0-1.252,1.25V8.76a1.25,1.25,0,0,1-1.252,1.25H3.755A1.251,1.251,0,0,1,2.5,8.76V1.255a1.251,1.251,0,0,0-2.5,0V8.76a3.753,3.753,0,0,0,3.755,3.753H28.783A3.753,3.753,0,0,0,32.536,8.76V1.255A1.251,1.251,0,0,0,31.285,0Z" transform="translate(0 18.944)" fill="#008ed0"/>
    <path id="Path_2718" data-name="Path 2718" d="M14.612,19.064a1.378,1.378,0,0,0-1.74,0l-4.126,3.63V1.1A1.184,1.184,0,0,0,7.494,0,1.185,1.185,0,0,0,6.241,1.1V22.694l-4.123-3.63a1.377,1.377,0,0,0-1.771.027,1.011,1.011,0,0,0,0,1.532l6.261,5.512a1.375,1.375,0,0,0,1.771,0l0,0,6.262-5.512a1.012,1.012,0,0,0-.031-1.559Z" transform="translate(8.775)" fill="#008ed0"/>
  </g>
</svg>
