<svg xmlns="http://www.w3.org/2000/svg" width="62.533" height="62.533" viewBox="0 0 62.533 62.533">
  <g id="Group_2061" data-name="Group 2061" transform="translate(0.003 0.003)">
    <path id="Path_2759" data-name="Path 2759" d="M1.954,9.01A1.957,1.957,0,0,1,0,7.054v-5.1a1.958,1.958,0,0,1,3.916,0v5.1A1.957,1.957,0,0,1,1.954,9.01Z" transform="translate(29.309)" fill="#059fe2"/>
    <path id="Path_2760" data-name="Path 2760" d="M1.951,7.52A1.957,1.957,0,0,1,.569,4.181L4.177.572A1.956,1.956,0,0,1,6.943,3.338L3.335,6.947A1.962,1.962,0,0,1,1.951,7.52Z" transform="translate(46.429 8.582)" fill="#059fe2"/>
    <path id="Path_2761" data-name="Path 2761" d="M7.054,3.912h-5.1A1.958,1.958,0,0,1,1.952,0h5.1a1.958,1.958,0,0,1,0,3.916Z" transform="translate(53.52 29.309)" fill="#059fe2"/>
    <path id="Path_2762" data-name="Path 2762" d="M5.558,7.514a1.942,1.942,0,0,1-1.382-.573L.569,3.338A1.955,1.955,0,0,1,3.335.576l3.608,3.6A1.954,1.954,0,0,1,5.558,7.514Z" transform="translate(46.429 46.427)" fill="#059fe2"/>
    <path id="Path_2763" data-name="Path 2763" d="M1.954,7.514A1.954,1.954,0,0,1,.574,4.179l3.6-3.6A1.953,1.953,0,0,1,6.939,3.338l-3.6,3.6A1.948,1.948,0,0,1,1.954,7.514Z" transform="translate(8.585 46.427)" fill="#059fe2"/>
    <path id="Path_2764" data-name="Path 2764" d="M7.054,3.912h-5.1A1.958,1.958,0,0,1,1.952,0h5.1a1.958,1.958,0,0,1,0,3.916Z" transform="translate(0 29.309)" fill="#059fe2"/>
    <path id="Path_2765" data-name="Path 2765" d="M5.557,7.52a1.936,1.936,0,0,1-1.38-.574L.574,3.338A1.955,1.955,0,0,1,3.336.572l3.6,3.608A1.957,1.957,0,0,1,5.557,7.52Z" transform="translate(8.585 8.582)" fill="#059fe2"/>
    <path id="Path_2766" data-name="Path 2766" d="M15.627,0V3.256a4.582,4.582,0,0,1-4.557,4.563H4.561C2.374,7.819,0,6.15,0,2.5V0Z" transform="translate(23.447 54.711)" fill="#059fe2"/>
    <path id="Path_2767" data-name="Path 2767" d="M10.24,37.8v-.027A7.845,7.845,0,0,0,7.272,32.8,18.223,18.223,0,0,1,14.332.413,18.757,18.757,0,0,1,18.235,0,18.234,18.234,0,0,1,29.521,32.562a8.637,8.637,0,0,0-3.335,5.211V37.8a.25.25,0,0,0-.131-.024H10.425a.445.445,0,0,0-.183.026ZM18.892,6.51a1.954,1.954,0,1,0,0,3.908,7.16,7.16,0,0,1,7.164,7.165,1.954,1.954,0,0,0,3.908,0A11.085,11.085,0,0,0,18.892,6.51Z" transform="translate(13.023 13.03)" fill="#059fe2"/>
    <path id="Path_2768" data-name="Path 2768" d="M0,0H.187A.52.52,0,0,0,0,.022Z" transform="translate(23.265 50.803)" fill="#059fe2"/>
    <path id="Path_2769" data-name="Path 2769" d="M.126,0V.022A.266.266,0,0,0,0,0Z" transform="translate(39.079 50.803)" fill="#059fe2"/>
  </g>
</svg>
