<svg xmlns="http://www.w3.org/2000/svg" width="56.294" height="56.298" viewBox="0 0 56.294 56.298">
  <path id="exit" d="M30.9,56.3H8.8A8.807,8.807,0,0,1,0,47.5V8.8A8.807,8.807,0,0,1,8.8,0H30.9a8.806,8.806,0,0,1,8.8,8.8v4.4a2.2,2.2,0,0,1-4.4,0V8.8a4.4,4.4,0,0,0-4.4-4.4H8.8A4.4,4.4,0,0,0,4.4,8.8V47.5a4.4,4.4,0,0,0,4.4,4.4H30.9a4.4,4.4,0,0,0,4.4-4.4V43.1a2.2,2.2,0,1,1,4.4,0v4.4A8.806,8.806,0,0,1,30.9,56.3Zm17.31-18.583a2.2,2.2,0,0,1-1.555-3.754l3.5-3.5H23.75a2.2,2.2,0,0,1,0-4.4H50.155l-3.5-3.5a2.2,2.2,0,1,1,3.11-3.11l4.924,4.924a5.5,5.5,0,0,1,0,7.775l-4.924,4.925A2.185,2.185,0,0,1,48.208,37.715Z" transform="translate(0)" fill="#008ed0"/>
</svg>
