<svg id="explore" xmlns="http://www.w3.org/2000/svg" width="40.576" height="40.576" viewBox="0 0 40.576 40.576">
  <g id="Group_185" data-name="Group 185">
    <path id="Path_76" data-name="Path 76" d="M20.288,40.576A20.288,20.288,0,1,1,40.576,20.288,20.311,20.311,0,0,1,20.288,40.576Zm0-38.232A17.944,17.944,0,1,0,38.232,20.288,17.965,17.965,0,0,0,20.288,2.344Z" fill="#8d9494"/>
    <path id="Path_77" data-name="Path 77" d="M1.089,21.068a1.088,1.088,0,0,1-.514-.13,1.107,1.107,0,0,1-.256-.19A1.1,1.1,0,0,1,.13,19.46l6.6-12.281a1.1,1.1,0,0,1,.445-.445L19.46.131a1.09,1.09,0,0,1,1.5,1.421l-.008.016c-.01.023-.023.046-.035.068l0,.008-6.576,12.25a1.083,1.083,0,0,1-.445.445l-12.289,6.6-.007,0-.007,0,0,0A1.111,1.111,0,0,1,1.089,21.068ZM7.96,9.5l-4.195,7.8,7.8-4.2Zm9.347-5.738-7.8,4.2,3.607,3.607,4.2-7.8Z" transform="translate(9.754 9.754)" fill="#8d9494"/>
  </g>
</svg>
