<svg xmlns="http://www.w3.org/2000/svg" width="27" height="36" viewBox="0 0 27 36">
  <path id="file-pdf" d="M6.188,21.375H5.625V18h.563a1.688,1.688,0,0,1,0,3.375ZM13.5,18h.563a1.128,1.128,0,0,1,1.125,1.125v4.5a1.128,1.128,0,0,1-1.125,1.125H13.5ZM15.75,0V9A2.248,2.248,0,0,0,18,11.25h9V31.5A4.5,4.5,0,0,1,22.5,36H4.5A4.5,4.5,0,0,1,0,31.5V4.5A4.5,4.5,0,0,1,4.5,0ZM4.5,15.75a1.126,1.126,0,0,0-1.125,1.125v9a1.125,1.125,0,1,0,2.25,0v-2.25h.563a3.937,3.937,0,0,0,0-7.875Zm6.75,10.125A1.128,1.128,0,0,0,12.375,27h1.688a3.376,3.376,0,0,0,3.375-3.375v-4.5a3.376,3.376,0,0,0-3.375-3.375H12.375a1.128,1.128,0,0,0-1.125,1.125Zm9-10.125a1.128,1.128,0,0,0-1.125,1.125v9a1.125,1.125,0,1,0,2.25,0V22.5h2.25a1.125,1.125,0,1,0,0-2.25h-2.25V18h2.25a1.125,1.125,0,1,0,0-2.25ZM18,0l9,9H18Z" fill="#018ed0"/>
</svg>
