<svg xmlns="http://www.w3.org/2000/svg" width="106" height="106" viewBox="0 0 106 106">
  <g id="Icon" transform="translate(0 0)">
    <path id="Toggle" d="M0,53a53,53,0,1,1,53,53A53,53,0,0,1,0,53Z" fill="#dfdfdf"/>
    <g id="search_13_" data-name="search (13)" transform="translate(27.544 27.368)">
      <path id="Path_2545" data-name="Path 2545" d="M11.356,17.133l-1.783,6.66-6.517.138A25.683,25.683,0,0,1,2.868,0h0l5.8,1.064,2.542,5.77a15.3,15.3,0,0,0,.144,10.3Z" transform="translate(0 13.844)" fill="#fbbb00"/>
      <path id="Path_2546" data-name="Path 2546" d="M24.618,0a25.654,25.654,0,0,1,.448,4.788,25.671,25.671,0,0,1-.561,5.351,25.622,25.622,0,0,1-9.024,14.635h0L8.167,24.4,7.132,17.94a15.275,15.275,0,0,0,6.572-7.8H0V0H24.618Z" transform="translate(26.195 20.843)" fill="#518ef8"/>
      <path id="Path_2547" data-name="Path 2547" d="M38.624,14.64h0a25.524,25.524,0,0,1-16.048,5.644A25.63,25.63,0,0,1,0,6.8L8.306,0A15.242,15.242,0,0,0,22.578,9.889a15.155,15.155,0,0,0,7.7-2.085Z" transform="translate(3.055 30.979)" fill="#28b446"/>
      <path id="Path_2548" data-name="Path 2548" d="M39.123,5.9l-8.3,6.8A15.24,15.24,0,0,0,8.351,20.678L0,13.842H0A25.633,25.633,0,0,1,39.123,5.9Z" transform="translate(2.866)" fill="#f14336"/>
    </g>
  </g>
</svg>
