<svg xmlns="http://www.w3.org/2000/svg" width="63.897" height="58.886" viewBox="0 0 63.897 58.886">
  <g id="Group_2060" data-name="Group 2060" transform="translate(0.004 0.001)">
    <path id="Path_2751" data-name="Path 2751" d="M7.588.092a8.891,8.891,0,1,0,10.14,9.662A8.9,8.9,0,0,0,7.588.092Z" transform="translate(1.99 41.008)" fill="#059fe2"/>
    <path id="Path_2752" data-name="Path 2752" d="M8.171.124a6.876,6.876,0,1,0,5.6,6.756A6.891,6.891,0,0,0,8.171.124Z" transform="translate(50.125 45.13)" fill="#059fe2"/>
    <path id="Path_2753" data-name="Path 2753" d="M60.762,31.989V30.757H23.877a1.875,1.875,0,1,1,0-3.751h35.2c-12.157-2.476-2.864-.438-47.586-10.679L8.715,1.532A1.875,1.875,0,0,0,6.872,0h-5a1.875,1.875,0,1,0,0,3.751H5.316L8,18.054v9.533A12.652,12.652,0,0,1,23.482,40.759H46.318a10.641,10.641,0,0,1,14.444-8.77Z" transform="translate(0 10.003)" fill="#059fe2"/>
    <path id="Path_2754" data-name="Path 2754" d="M1.875,0A1.875,1.875,0,0,0,0,1.878V3.427c.013,0,30.607,7.024,31.753,7.257V1.878A1.875,1.875,0,0,0,29.878,0h-28Z" transform="translate(20.004 21.005)" fill="#059fe2"/>
    <path id="Path_2755" data-name="Path 2755" d="M0,1.878V4.254H19.75V1.878A1.876,1.876,0,0,0,17.875,0h-16A1.876,1.876,0,0,0,0,1.878Z" transform="translate(26.006 13.003)" fill="#059fe2"/>
    <path id="Path_2756" data-name="Path 2756" d="M1.281,3.657c3.211,1.07,3.188,1.1,3.6,1.1A1.877,1.877,0,0,0,5.469,1.1l-3-1a1.876,1.876,0,0,0-1.187,3.56Z" transform="translate(10.002 3)" fill="#059fe2"/>
    <path id="Path_2757" data-name="Path 2757" d="M1.283,3.656c3.211,1.07,3.188,1.1,3.6,1.1A1.877,1.877,0,0,0,5.471,1.1l-3-1a1.876,1.876,0,0,0-1.187,3.56Z" transform="translate(20.004)" fill="#059fe2"/>
    <path id="Path_2758" data-name="Path 2758" d="M.1,1.285A1.876,1.876,0,0,0,1.282,3.658l3,1A1.876,1.876,0,0,0,5.47,1.1l-3-1A1.876,1.876,0,0,0,.1,1.285Z" transform="translate(14.003 11.002)" fill="#059fe2"/>
  </g>
</svg>
