<svg xmlns="http://www.w3.org/2000/svg" width="55.731" height="64.678" viewBox="0 0 55.731 64.678">
  <g id="icon" transform="translate(0 0)">
    <path id="Path_2706" data-name="Path 2706" d="M.185,6.854.811,7.2a4.2,4.2,0,0,1,2.128,2.942l.554,3.044a.348.348,0,0,0,.313.284h.029a.348.348,0,0,0,.327-.229L7.444,4.154A3.1,3.1,0,0,0,5.581.182,3.135,3.135,0,0,0,3.209.291a3.08,3.08,0,0,0-1.6,1.754L.025,6.431A.348.348,0,0,0,.185,6.854Z" transform="translate(28.454 2.17)" fill="#059fe2"/>
    <path id="Path_2707" data-name="Path 2707" d="M.038,13.776a.346.346,0,0,0,.22.174l.888.229a4.209,4.209,0,0,1,2.521,1.853l.91,1.452a.348.348,0,0,0,.295.163l.037,0a.349.349,0,0,0,.29-.228L9.991,4.155A3.1,3.1,0,0,0,8.127.182,3.136,3.136,0,0,0,5.755.291a3.082,3.082,0,0,0-1.6,1.755L.018,13.495a.348.348,0,0,0,.019.281Z" transform="translate(34.468)" fill="#059fe2"/>
    <path id="Path_2708" data-name="Path 2708" d="M37.529,13.248a3.1,3.1,0,1,0-6.206,0v12.02H30.21V8.052a3.1,3.1,0,1,0-6.206,0V25.268H22.891V3.1a3.1,3.1,0,1,0-6.206,0V25.268H15.571V8.052a3.1,3.1,0,0,0-6.206,0V27.7L5.8,23.586a3.823,3.823,0,0,0-2.2-1.339,2.684,2.684,0,0,0-.432-.036,2.723,2.723,0,0,0-1.813.718C-.187,24.266-.411,25.986.674,28.2l8.7,16.64L8.227,58.312a.347.347,0,0,0,.347.377h29.8a.348.348,0,0,0,.347-.379l-1.2-13.416V13.248Z" transform="translate(0 5.988)" fill="#059fe2"/>
    <path id="Path_2709" data-name="Path 2709" d="M14.138,7.558a3.135,3.135,0,0,0-2.372.109,3.082,3.082,0,0,0-1.6,1.753L6.084,20.727l-1.046-.378L10.886,4.157A3.1,3.1,0,0,0,5.051,2.046L.024,15.964A.346.346,0,0,0,0,16.083V42.668c0,.01,0,.02,0,.031L.988,53.761a.348.348,0,0,0,.313.316l.033,0a.347.347,0,0,0,.334-.252L5.256,41.288,16,11.531a3.108,3.108,0,0,0-1.864-3.973Z" transform="translate(39.544 7.14)" fill="#059fe2"/>
  </g>
</svg>
