<svg id="Group_2036" data-name="Group 2036" xmlns="http://www.w3.org/2000/svg" width="84.024" height="84.024" viewBox="0 0 84.024 84.024">
  <path id="Ellipse_71" data-name="Ellipse 71" d="M0,26.5A26.5,26.5,0,1,1,26.5,53,26.5,26.5,0,0,1,0,26.5Z" transform="translate(16.012 16.012)" fill="#fff"/>
  <path id="play-button_4_" data-name="play-button (4)" d="M42.012,84.024A42.023,42.023,0,0,1,25.659,3.3,42.023,42.023,0,0,1,58.365,80.722,41.747,41.747,0,0,1,42.012,84.024ZM34.134,26.256a2.629,2.629,0,0,0-2.625,2.627V55.14a2.626,2.626,0,0,0,4.018,2.228L56.533,44.239a2.627,2.627,0,0,0,0-4.454L35.527,26.656A2.623,2.623,0,0,0,34.134,26.256Z" fill="#008ed0"/>
</svg>
