<svg xmlns="http://www.w3.org/2000/svg" width="59.092" height="45.011" viewBox="0 0 59.092 45.011">
  <g id="icon" transform="translate(0.004 -0.001)">
    <g id="Group_2002" data-name="Group 2002" transform="translate(0 38.086)">
      <g id="Group_2001" data-name="Group 2001">
        <path id="Path_2701" data-name="Path 2701" d="M55.625,0H3.458a3.465,3.465,0,0,0,0,6.929H55.625a3.465,3.465,0,0,0,0-6.929Z" fill="#059fe2"/>
      </g>
    </g>
    <g id="Group_2004" data-name="Group 2004" transform="translate(3.578)">
      <g id="Group_2003" data-name="Group 2003">
        <path id="Path_2702" data-name="Path 2702" d="M41.548,8.691v6.888a1.731,1.731,0,0,1-3.462,0V6.472a25.816,25.816,0,0,0-3.462-1.5V19.041a1.731,1.731,0,0,1-3.462,0V1.732A1.732,1.732,0,0,0,29.431,0H22.507a1.732,1.732,0,0,0-1.731,1.731V19.041a1.731,1.731,0,0,1-3.462,0V4.972a25.794,25.794,0,0,0-3.462,1.5v9.107a1.731,1.731,0,0,1-3.462,0V8.691A25.893,25.893,0,0,0,0,29.426v5.193H51.934V29.426A25.893,25.893,0,0,0,41.548,8.691Z" fill="#059fe2"/>
      </g>
    </g>
  </g>
</svg>
