<svg xmlns="http://www.w3.org/2000/svg" width="35.479" height="31.552" viewBox="0 0 35.479 31.552">
  <g id="like_7_" data-name="like (7)" transform="translate(1 1)">
    <g id="Group_1838" data-name="Group 1838">
      <path id="Path_2521" data-name="Path 2521" d="M24.586,0a7.927,7.927,0,0,0-4.95,1.711,11.275,11.275,0,0,0-2.9,3.483,11.275,11.275,0,0,0-2.9-3.483A7.927,7.927,0,0,0,8.893,0C3.823,0,0,4.146,0,9.645c0,5.94,4.77,10,11.99,16.157,1.226,1.045,2.616,2.229,4.061,3.492a1.047,1.047,0,0,0,1.377,0c1.445-1.263,2.834-2.448,4.061-3.493,7.22-6.152,11.989-10.216,11.989-16.156,0-5.5-3.823-9.645-8.893-9.645Z" fill="none" stroke="#008ed0" stroke-miterlimit="10" stroke-width="2"/>
    </g>
  </g>
</svg>
