<svg xmlns="http://www.w3.org/2000/svg" width="62.237" height="64.416" viewBox="0 0 62.237 64.416">
  <g id="Group_2010" data-name="Group 2010" transform="translate(0.002 0)">
    <g id="Group_2009" data-name="Group 2009">
      <path id="Path_2710" data-name="Path 2710" d="M12.224.042A22,22,0,0,1,6.869.989l-.056,0-.055,0A21.989,21.989,0,0,1,1.4.042,1.088,1.088,0,0,0,.781,2.127,24.086,24.086,0,0,0,6.758,3.168l.055,0,.056,0a24.081,24.081,0,0,0,5.976-1.041,1.088,1.088,0,0,0-.62-2.085Z" transform="translate(24.304 50.006)" fill="#059fe2"/>
      <path id="Path_2711" data-name="Path 2711" d="M31.139,64.416l-.023,0-.023,0a19.016,19.016,0,0,1-5.859-.766,7.678,7.678,0,0,1-4.965-4.17,12.605,12.605,0,0,0-2.252-2.847c-2.058-2.208-4.877-5.232-5.165-9.67A6.163,6.163,0,0,1,7.942,49.3,7.6,7.6,0,0,1,3.9,48.069C2.484,47.187,1.32,44.823.625,41.413A32.991,32.991,0,0,1,.2,31.386a16.776,16.776,0,0,1,1.227-4.88,4.42,4.42,0,0,1,2.411-2.582,5.133,5.133,0,0,1,1.594-.211,12.307,12.307,0,0,1,1.792.149c.459.07.782.143.8.149A34.341,34.341,0,0,1,9.53,15.536a23.914,23.914,0,0,1,4.917-8.791C18.467,2.27,24.075,0,31.116,0s12.65,2.27,16.669,6.745A23.91,23.91,0,0,1,52.7,15.536a34.365,34.365,0,0,1,1.51,8.474c.019-.007.344-.079.8-.149a12.308,12.308,0,0,1,1.792-.149,5.139,5.139,0,0,1,1.595.211,4.421,4.421,0,0,1,2.411,2.583,16.781,16.781,0,0,1,1.226,4.881,32.993,32.993,0,0,1-.426,10.027c-.695,3.409-1.859,5.772-3.278,6.654a7.6,7.6,0,0,1-4.038,1.23,6.16,6.16,0,0,1-4.911-2.335c-.288,4.44-3.107,7.462-5.165,9.67a12.606,12.606,0,0,0-2.252,2.847A7.678,7.678,0,0,1,37,63.65,19.027,19.027,0,0,1,31.139,64.416ZM31.116,6.428c-5.567,0-9.537,1.407-12.139,4.3a18.843,18.843,0,0,0-4.332,11.755c0,2.965.148,11.365.255,17.5.057,3.22.1,5.76.1,6.233,0,3.991,2.447,6.616,4.605,8.932l0,0A13.755,13.755,0,0,1,22.259,58.6c1.082,2.449,3.972,3.64,8.834,3.64h.046c4.862,0,7.753-1.191,8.835-3.64a13.728,13.728,0,0,1,2.648-3.448c2.16-2.318,4.608-4.944,4.608-8.936,0-.472.045-3.013.1-6.23.108-6.136.255-14.536.255-17.5A18.843,18.843,0,0,0,43.255,10.73C40.654,7.835,36.683,6.428,31.116,6.428Z" fill="#059fe2"/>
      <path id="Path_2712" data-name="Path 2712" d="M.361,4.183c.806.753,7.428.418,8.86-.753C11.7,1.4,6.536.083,3.225,0S-.444,3.43.361,4.183Z" transform="translate(34.577 31.718)" fill="#059fe2"/>
      <path id="Path_2713" data-name="Path 2713" d="M9.5,4.183c.8-.753.447-4.267-2.861-4.183S-1.822,1.4.653,3.43C2.084,4.6,8.7,4.936,9.5,4.183Z" transform="translate(17.783 31.718)" fill="#059fe2"/>
    </g>
  </g>
</svg>
