<svg xmlns="http://www.w3.org/2000/svg" width="169.862" height="58.544" viewBox="0 0 169.862 58.544">
  <g id="logo" transform="translate(-442 -102.4)">
    <g id="Group_1" data-name="Group 1" transform="translate(442 102.395)">
      <path id="Path_2384" data-name="Path 2384" d="M31.331.145C25.361,7.111,19.586,14.19,13.653,21.179a1.017,1.017,0,0,1-.861.418c-3.249.025-6.494-.1-9.74-.112-.779-.014-.848-.055-.9-.846C1.507,14.291.991,7.932.127,1.61c-.25-1.6-.274-1.6,1.3-1.6,3.2.012,6.391.041,9.586.034.477,0,.558.167.556.59.1,3.628-.233,7.339.12,10.914,1.7-2.519,3.214-5.077,4.857-7.623.847-.958,1.8-3.7,2.97-3.9,3.925.119,7.948-.19,11.819.118Z" transform="translate(0 36.588)" fill="#0b0b0b"/>
      <path id="Path_2385" data-name="Path 2385" d="M6.624,15.855h0c-2.7,0-4.853-1-5.906-2.756-.811-1.349-1.344-3.774.725-7.673A10.862,10.862,0,0,1,5.67,1.444,11.961,11.961,0,0,1,11.322,0a9.748,9.748,0,0,1,6.123,2.046,2.849,2.849,0,0,0,0-.67c-.032-.4-.065-.823.141-1.045a.578.578,0,0,1,.45-.161c2.448.108,4.89.117,7.181.117h.94q1.077,0,2.155,0c.17,0,.277.034.327.1.069.093.024.237-.019.376L28.6.815c-.571,1.926-1.18,3.872-1.769,5.755-.9,2.867-1.825,5.831-2.635,8.778-.036.228-.211.247-.371.247h-.151c-.885,0-1.851,0-2.954,0H17.633c-1.232,0-2.694,0-4.194.009h-.02c-.148,0-.24-.037-.282-.113-.114-.207.185-.679.475-1.135a3.024,3.024,0,0,0,.5-1.01A13.262,13.262,0,0,1,6.624,15.855ZM14.3,4.914c-1.426.033-2.741,1.559-3.19,3.016a2.453,2.453,0,0,0,.7,2.894,1.6,1.6,0,0,0,.619.124c1.616,0,3.3-2.417,3.373-4.221A1.543,1.543,0,0,0,14.3,4.914Z" transform="translate(22.312 42.691)" fill="#0b0b0b"/>
      <path id="Path_2386" data-name="Path 2386" d="M8.433.116c.7.2,6.206-.519,5.391.525-.978,2.766-1.793,5.595-2.78,8.348-.536,1.674.89,1.706,2.134,1.389,1.425-.736,1.74-4.228,2.462-5.734.48-.833,1.078-4.9,2.022-4.629,3.5-.01,7,.011,10.5-.01.395,0,.462.052.359.48-1.623,6.74-4.6,14.252-12.54,14.808C11.319,15.911-.767,16.773.035,9.568c.348-1.386.849-2.733,1.275-4.1C3.683-1.386,1.223.344,8.433.131Z" transform="translate(49.887 42.857)" fill="#0b0b0b"/>
      <path id="Path_2387" data-name="Path 2387" d="M2.18,28.46c-3.653-3.02-2.188-8.182.566-11.29,6.5-6.924,15.993-9.914,24.7-13.076C36.569,1.3,46.416-.413,55.916.085A105.151,105.151,0,0,0,27.4,7.595c-7.667,3.3-29.787,15.415-12.513,21.637a.1.1,0,0,0,.135.073c.171.045.383-.045.5.156.388.337.931.257,1.4.328a.321.321,0,0,0,.44.081,15.155,15.155,0,0,0,3.556.638c.064.071.129.124.214.027l.408.063c.071.1.149.125.24.025a15.608,15.608,0,0,0,3.754.466c.146.267.379.165.594.141l1.04.03a.57.57,0,0,0,.647.015l.208.012c.31.226.738-.046,1.116.045,0,.391-.442.224-.577.447l-.316.014c-.3-.185-.556.1-.864.094-.114-.114-.219-.074-.322.018-.471.127-1.063-.216-1.418.177-1.737-.061-3.5.283-5.255.258a.223.223,0,0,0-.241.17l-3.952.005c-.352-.373-.809-.138-1.212-.19-1.548-.1-3.071-.316-4.614-.452a.092.092,0,0,0-.149-.042l-.182-.023c-.066-.1-.139-.1-.217-.015l-.408-.052c-.614-.469-1.444-.316-2.156-.534a3.426,3.426,0,0,0-1.627-.633.089.089,0,0,0-.132-.057l-.187-.045c-.092-.263-.329-.26-.544-.3-.089-.313-.4-.274-.647-.345-.025-.121-.146-.036-.211-.107-.09-.33-.453-.213-.653-.421-.018-.126-.139-.052-.213-.109-.027-.12-.078-.212-.223-.2l-.21-.227c.014-.243-.178-.16-.321-.232A.09.09,0,0,0,2.18,28.46Z" transform="translate(48.762 5.044)" fill="#0d0e0d"/>
      <path id="Path_2388" data-name="Path 2388" d="M18.56.014c-2.154,7.47-4.6,14.751-6.843,22.18-.076.29-.167.425-.489.425q-5.44-.014-10.881,0c-.319,0-.431-.01-.287-.416C2.308,14.992,4.6,7.789,6.814.575c.048-.4.2-.5.577-.5C11.114.091,14.838-.037,18.56.014Z" transform="translate(75.349 35.567)" fill="#0b0b0b"/>
      <path id="Path_2389" data-name="Path 2389" d="M19.807,1.755l-.357.025c-.184-.344.709-.1.841-.417C28.5-.31,53.647-3.124,45.86,12.043c-5.037,7.644-21.549,14.83-30.429,16.837a.074.074,0,0,0-.126.018c-.65.179-1.4.018-1.949.477l-.793.117a.2.2,0,0,0-.27.024c-.63.141-2.248.151-2.606.6l-.519.047c-.092-.1-.169-.073-.238.027l-.41.069c-.08-.1-.149-.055-.215.018a12.577,12.577,0,0,0-2.478.422c-.081-.084-.153-.073-.218.02-1.372.2-2.767.266-4.138.506-.243.036-.551-.113-.725.195l-.732.029Q0,31.333,0,31.222c.477-.175,1.013.016,1.423-.388a4.3,4.3,0,0,0,1.248-.162c.369-.143.835.007,1.124-.375l.2-.019a.344.344,0,0,0,.44-.081,10.9,10.9,0,0,0,2.556-.7,2.878,2.878,0,0,0,1.548-.474l.389-.067a.1.1,0,0,0,.14-.06c.4-.062.859-.036,1.151-.369.256-.019.562.092.69-.262l.2-.037c.145.1.25.049.332-.089C21.6,25.621,57.984,5.46,29.535,1.826a.2.2,0,0,0-.267-.042L27.4,1.675c-.185-.3-.461-.135-.7-.136l-1.037-.017a15.094,15.094,0,0,0-3.321,0c-.344.008-.714-.163-1.012.151-.506.032-1.017.014-1.519.078Z" transform="translate(89.617)" fill="#0d0e0d"/>
      <path id="Path_2390" data-name="Path 2390" d="M19.293.066l.213,0c.308.475.745.163,1.117.165,2.546.016,5.092.009,7.639.008.825-.089,1.06.368.252.779C26.525,2.289,24.71,3.8,22.7,5.046c-.577.673-3.009,1.413-2.339,2.43,1.74,1.894,3.335,3.934,4.929,5.962a.308.308,0,0,0,.258.159c.142.069.232.232.414.227l0,0c-.336,1.369-2.509.445-3.55.651-1.719-.013-3.439-.018-5.158.006-.982-.291-2.188.546-2.5-.876-.014-.29.082-.625-.31-.762-.039-.241.061-.53-.229-.645-.031-2.664-3.322,1.349-3.877,2.041l-9.877.01c-.232,0-.5.046-.468-.327.127-.184.419-.156.439-.428.482-.217.988-.405,1.171-.979h0C3.462,11.808,5,10.065,6.752,9.025c.5-.53,2.965-1.725,2.259-2.5A60.793,60.793,0,0,1,4.231.174c.1-.272.374-.137.57-.15a45.756,45.756,0,0,1,5.119.1c1.548.386,3.377-.173,4.948.218a.233.233,0,0,0,.114.212c.1.171.055.423.217.541.311.346.153.9.532,1.182l.1.006.006.014c.039.224-.1.562.254.6a.4.4,0,0,0,.486-.421c1.068-.388,1.681-1.8,2.713-2.414Z" transform="translate(130.571 43.282)" fill="#008ed0"/>
      <path id="Path_2391" data-name="Path 2391" d="M46.008,4.446a.148.148,0,0,1-.074.011l-.138.1h0c-5.279,2.528-10.029,6.136-15.164,8.972-3.256,2.4-7.445,3.939-10.375,6.543l0,0c-3.844,1.787-7.417,4.408-11.121,6.549-.612.4-.894-.865-1.267-1.2C5.179,21.065,3.059,16.146.106,12.1l0-.008c-.835-2.559,3.588.846,4.64.427l0,0c.935.9,2.4.964,3.534,1.557,2.421.763,4.672,2.075,7.148,2.574,4.7-1.631,9.1-4.044,13.669-6.028,1.621-.788,3.313-1.437,4.955-2.2.19-.076.427-.138.426-.422l.008,0c2.748-.733,5.273-2.332,7.924-3.37C44.845,3.1,48.036,2.389,50.321.791l.011-.005c.952.051,1.346-.822,2.341-.787-.764,1.056-2.2,1.184-3,2.194l0,0c-.52.008-3.623,1.755-3.674,2.254Z" transform="translate(69.368 9.123)" fill="#008ece"/>
      <path id="Path_2392" data-name="Path 2392" d="M4.736,2.749c-.031-.287.178-.495.245-.749.262-.023.275-.21.31-.418C5.49.606,6-.247,7.122.067c2.726-.016,5.453,0,8.179,0,.651,0,.761.134.588.772-.026.906-1.6,3.169-.05,3.317,2.111.054,2.829-.49,1.807,2-.462.915-.156,2.886-1.527,2.957a6.842,6.842,0,0,0-1.481-.033c-1.077.059-1.129.122-1.494,1.115-.845,2.906-2.226,5.648-2.82,8.616-.237-.019-.4.061-.41.324l-.213,0c-.2-.4-.519-.093-.765-.1-2.878-.092-5.762.127-8.634-.106-1.184.112,1.457-6.954,1.631-7.977,1.893-4.241-2.1-.871-1.6-3.1,1.208-2.818-.5-3.763,3.436-3.473a.461.461,0,0,0,.541-.341,1.393,1.393,0,0,0,.424-1.288Z" transform="translate(92.75 38.826)" fill="#008ed0"/>
      <path id="Path_2393" data-name="Path 2393" d="M15.61,0c.67,1.089.629,5.138-1.02,5.04q-6.7,0-13.408,0C-.576,4.766.257,8.674,4.2,5.868c3.013-.407,6.25-.018,9.335-.144.231,0,.57-.121.635.225s.176.757-.16,1.063c-3.371,3.167-8.074,4.535-12.632,4.605,0-.062.007-.125.01-.187a22.826,22.826,0,0,0,9.4-2.37c1.042-.792,2.8-1.384,3.1-2.753-.016-.268-.132-.413-.4-.367a80.047,80.047,0,0,1-8.233-.017c-1.42.1-2.413,1.53-3.984,1.185A1.3,1.3,0,0,1,.417,4.851q7.025,0,14.051,0c.922.186,1.106-1.255,1.252-1.936.425-.436-.016-1.131.161-1.681.011-.078-.106-.174-.163-.262-.032-.182.068-.409-.109-.538A.233.233,0,0,0,15.5.212c0-.033,0-.065,0-.1Z" transform="translate(119.165 46.752)" fill="#3197c5"/>
      <path id="Path_2394" data-name="Path 2394" d="M26.284,4.276l-.108.118C22.475-1.48,11.316-.165,5.861,2.462a10.626,10.626,0,0,0-5.63,7.47c-.136,4.759,6,5.6,9.667,5.77,0,.062,0,.125.006.188C-2.319,16.222-3.161,6.509,6.977,1.675c5.221-2.1,16.194-3.151,19.307,2.6Z" transform="translate(108.495 42.476)" fill="#2a8fbc"/>
      <path id="Path_2396" data-name="Path 2396" d="M29.73,0c0,.284-.236.346-.426.422-1.642.76-3.334,1.409-4.955,2.2C19.781,4.6,15.379,7.015,10.684,8.646c-2.476-.5-4.726-1.81-7.147-2.572C2.4,5.481.943,5.421,0,4.518,3.425,5.7,6.776,7.1,10.172,8.346c1.8.286,5.2-2.185,7.171-2.767C21.473,3.739,25.552,1.709,29.73,0Z" transform="translate(74.114 17.128)" fill="#2a8fbc"/>
      <path id="Path_2397" data-name="Path 2397" d="M13.9,2.154c-.143-.272-.1-.615-.324-.855a.227.227,0,0,0-.107-.212C13.392.736,2.715.1,2.612.374a60.734,60.734,0,0,0,4.78,6.351c.706.78-1.761,1.962-2.259,2.5C3.38,10.262,1.843,12,0,12.714,8.673,5.127,9.343,10.189,2.1.411c-.238-.2-.1-.483.2-.4,3.462-.061,6.92.093,10.379.105.455,0,.719.092.852.574a10.2,10.2,0,0,1,.68,1.793l-.1-.006c-.034-.036-.069-.07-.1-.106a.235.235,0,0,0-.106-.22Z" transform="translate(132.186 43.083)" fill="#2a8fbc"/>
      <path id="Path_2398" data-name="Path 2398" d="M0,15.509c2.931-2.6,7.118-4.138,10.375-6.542C15.508,6.131,20.259,2.523,25.538,0,17.15,5.287,8.549,10.455,0,15.509Z" transform="translate(89.629 13.681)" fill="#2a8fbc"/>
      <path id="Path_2399" data-name="Path 2399" d="M6.047,13.6c-1.529-1.511-2.77-3.491-4.291-5.086-.345-.649-1.626-1.3-.672-2.046C3.831,4.812,6.327,2.781,9.012,1.026,9.8.627,9.6.152,8.759.247c-2.548,0-5.1.007-7.643-.008C.744.236.306.548,0,.074c3.493,0,7.12-.213,10.549.071C-.8,9.5-1.208,3.859,6.026,13.307q.01.147.021.294Z" transform="translate(150.078 43.272)" fill="#2a8fbc"/>
      <path id="Path_2400" data-name="Path 2400" d="M0,0C2.031,2.835,3.416,6.158,5.279,9.124c.37.344.657,1.591,1.268,1.2,3.7-2.141,7.28-4.762,11.126-6.548C14.071,6.239,10.2,8.32,6.5,10.643c-.831.488-2.086-2.927-2.6-3.564C2.677,4.7.921,2.487,0,0Z" transform="translate(71.958 25.418)" fill="#2a8fbc"/>
      <path id="Path_2401" data-name="Path 2401" d="M11.425,7.689c-.04-1.057.7-1.933.757-2.975-.235-1.091-3.266.548-2.936-1.188,0-.792,1.628-3.444.123-3.262l-7.322,0C1.422-.067.658.364,0,.056,3.255-.1,6.554.153,9.826.072c.774.007.792.009.542.729-.3.859-.456,1.764-.83,2.6-.517,1.024,2.072.39,2.627.551.353-.005.553.162.432.487a27.4,27.4,0,0,1-1.062,3.252h-.109Z" transform="translate(98.681 38.628)" fill="#2a8fbc"/>
      <path id="Path_2402" data-name="Path 2402" d="M15.841,0c-2.288,1.6-5.479,2.311-7.918,3.836C5.271,4.875,2.745,6.473,0,7.206,5.183,4.683,10.5,2.218,15.841,0Z" transform="translate(103.855 9.916)" fill="#2a8fbc"/>
      <path id="Path_2403" data-name="Path 2403" d="M7.015,0h.109c-.154.593-.072,1.82-.884,1.842-.968.2-2.67-.553-3.123.579C2.061,5.4,1.151,8.484,0,11.418c.468-3,1.985-5.783,2.8-8.72C3.168,1.7,3.22,1.641,4.3,1.582,6.062,1.535,6.5,2.027,7.015,0Z" transform="translate(103.093 46.321)" fill="#3197c5"/>
      <path id="Path_2404" data-name="Path 2404" d="M1.084,0c-.028.373.236.327.469.327L11.435.315c.074.277-.136.384-.357.34C7.385.608,3.683.749,0,.6L.676,0,1.084,0Z" transform="translate(129.49 57.202)" fill="#1f85b2"/>
      <path id="Path_2405" data-name="Path 2405" d="M0,3.343c.8-1.01,2.23-1.137,2.995-2.193-1-.035-1.389.837-2.34.787C.861,1.708,6.345-1.022,4.947.421a.2.2,0,0,0-.219.19C3.114,1.41,1.666,2.69,0,3.343Z" transform="translate(119.05 7.977)" fill="#2a8fbc"/>
      <path id="Path_2406" data-name="Path 2406" d="M.215.13C.5.956.786,1.15,1.6.938,3.68,1.029,5.772.978,7.866,1c1.044-.206,3.212.719,3.549-.651.745.5.66,1.062-.308.852-3.224.008-6.448,0-9.672,0C.33,1.205.263,1.153,0,.019L.025,0Z" transform="translate(145.123 56.758)" fill="#46a3cc"/>
      <path id="Path_2407" data-name="Path 2407" d="M4.316.021C4.244.3,4.051.354,3.788.349.564.13,1.2.507.57,3.349-.58,5.55,1.9,4.03,2.488,4.971-1.493,5.1.379,4.855.888.686,1.173-.639,3.33.453,4.316.021Z" transform="translate(92.732 42.858)" fill="#1f85b2"/>
      <path id="Path_2408" data-name="Path 2408" d="M5.221,1.915c-1.048.422-5.474-3-4.639-.428C.163,1.15.236.6.03.174c-.1-.209.1-.184.21-.165A42.472,42.472,0,0,1,5.221,1.915Z" transform="translate(68.892 19.732)" fill="#2a8fbc"/>
      <path id="Path_2409" data-name="Path 2409" d="M.467,0c.208.49-.639,1.273.207,1.323,2.873.232,5.757.014,8.636.106.246,0,.562-.3.765.1Q5.2,1.531.331,1.543C-.4,1.524.259.345.467,0Z" transform="translate(92.376 56.433)" fill="#1f85b2"/>
      <path id="Path_2410" data-name="Path 2410" d="M.014,3.085,0,2.942C.51,2.293,3.788-1.679,3.862.813,3.708.808,3.676.652,3.573.583,3.225-.786.755,2.8.014,3.085Z" transform="translate(140.92 54.575)" fill="#2a8fbc"/>
      <path id="Path_2411" data-name="Path 2411" d="M0,2.258c.131-.551.695-.613,1.057-.875A8.6,8.6,0,0,1,3.679,0,18.841,18.841,0,0,1,0,2.258Z" transform="translate(115.379 11.316)" fill="#2a8fbc"/>
      <path id="Path_2412" data-name="Path 2412" d="M2.032,3.341c0,.069,0,.139,0,.208A32.206,32.206,0,0,1,0,0L.2.009A15.98,15.98,0,0,1,2.032,3.341Z" transform="translate(69.923 22.078)" fill="#3197c5"/>
      <path id="Path_2413" data-name="Path 2413" d="M0,.424A.222.222,0,0,1,.239.256C1.888.3,3.559-.064,5.183.011A38.617,38.617,0,0,1,0,.424Z" transform="translate(68.918 37.126)" fill="#505051"/>
      <path id="Path_2414" data-name="Path 2414" d="M2.714.026C1.676.639,1.087,2.013,0,2.416.546,1.842,1.941-.272,2.714.026Z" transform="translate(147.148 43.351)" fill="#2a8fbc"/>
      <path id="Path_2415" data-name="Path 2415" d="M.317,1.354C.684.977.274,1.015,0,1.026A9.73,9.73,0,0,1,2.516,0a10.226,10.226,0,0,1-2.2,1.356Z" transform="translate(123.794 6.943)" fill="#46a3cc"/>
      <path id="Path_2416" data-name="Path 2416" d="M0,.514C.139.292.576.458.581.068A14.929,14.929,0,0,1,3.106.044C1.974.159,1.015.5,0,.514Z" transform="translate(77.333 36.302)" fill="#505051"/>
      <path id="Path_2417" data-name="Path 2417" d="M2.932,0C2.8.322,1.907.075,2.09.416A11.89,11.89,0,0,1,0,.691L.009.483C1.007.478,1.972.051,2.932,0Z" transform="translate(106.975 1.358)" fill="#505051"/>
      <path id="Path_2418" data-name="Path 2418" d="M.95,0C1.607.305,2.37-.127,2.995.2,1.431.171.707-.116.31,1.726c-.035.208-.048.4-.31.419C.138,1.58.444.185.95,0Z" transform="translate(97.73 38.681)" fill="#1f85b2"/>
      <path id="Path_2419" data-name="Path 2419" d="M0,0C.8.058,1.6.081,2.388.183c.4.052.858-.183,1.21.19A14.246,14.246,0,0,1,0,0Z" transform="translate(61.364 37.188)" fill="#505051"/>
      <path id="Path_2420" data-name="Path 2420" d="M0,.573C.177.264.485.414.727.377,1.685.233,2.647.121,3.608,0A11.448,11.448,0,0,1,0,.573Z" transform="translate(90.364 30.843)" fill="#505051"/>
      <path id="Path_2421" data-name="Path 2421" d="M2.924.414A6.774,6.774,0,0,1,0,0Z" transform="translate(71.178 35.707)" fill="#505051"/>
      <path id="Path_2422" data-name="Path 2422" d="M2.73.6A9.919,9.919,0,0,1,0,0,12.84,12.84,0,0,1,2.73.6Z" transform="translate(66.441 34.938)" fill="#505051"/>
      <path id="Path_2423" data-name="Path 2423" d="M0,.117A5.974,5.974,0,0,1,2.373.123Z" transform="translate(112.901 1.397)" fill="#505051"/>
      <path id="Path_2424" data-name="Path 2424" d="M0,.561c.238-.4.681-.21,1.018-.33A7.464,7.464,0,0,1,2.324,0c-.36.35-.873.172-1.292.37A3.95,3.95,0,0,1,0,.561Z" transform="translate(99.305 29.547)" fill="#505051"/>
      <path id="Path_2425" data-name="Path 2425" d="M0,.189Q0,.1,0,0H2.159c0,.062-.006.124-.01.185A14.808,14.808,0,0,1,0,.189Z" transform="translate(118.396 58.179)" fill="#1f85b2"/>
      <path id="Path_2426" data-name="Path 2426" d="M1.319,0C1.134.574.627.762.143.978L0,.927A4.3,4.3,0,0,1,1.319,0Z" transform="translate(130.869 55.796)" fill="#2a8fbc"/>
      <path id="Path_2427" data-name="Path 2427" d="M1.766,0A3.852,3.852,0,0,1,0,.589,6.7,6.7,0,0,1,1.766,0Z" transform="translate(94.447 29.556)" fill="#505051"/>
      <path id="Path_2428" data-name="Path 2428" d="M0,.367A3.807,3.807,0,0,1,1.671,0,4.511,4.511,0,0,1,0,.367Z" transform="translate(95.861 30.303)" fill="#505051"/>
      <path id="Path_2429" data-name="Path 2429" d="M0,0C.49.1,1.027.016,1.459.356.983.192.431.336,0,0Z" transform="translate(120.948 2.073)" fill="#505051"/>
      <path id="Path_2430" data-name="Path 2430" d="M1.285.245C.866.52.435.291,0,.276c.5.079.9-.3,1.38-.271Z" transform="translate(87.694 31.229)" fill="#949393"/>
      <path id="Path_2431" data-name="Path 2431" d="M.643.859.446.853A2.341,2.341,0,0,1,0,0,1,1,0,0,1,.643.859Z" transform="translate(69.476 21.224)" fill="#2a8fbc"/>
      <path id="Path_2432" data-name="Path 2432" d="M0,0a2.908,2.908,0,0,1,1.34.577A3.99,3.99,0,0,1,0,0Z" transform="translate(54.687 35.676)" fill="#505051"/>
      <path id="Path_2433" data-name="Path 2433" d="M0,0A4.937,4.937,0,0,1,1.331.176,2.183,2.183,0,0,1,0,0Z" transform="translate(59.849 36.977)" fill="#505051"/>
      <path id="Path_2434" data-name="Path 2434" d="M.953,0c0,.07-.009.14-.014.211C.668.574.336.411,0,.27Z" transform="translate(106.035 1.843)" fill="#949393"/>
      <path id="Path_2435" data-name="Path 2435" d="M1.234.589A2.266,2.266,0,0,1,0,0,3.861,3.861,0,0,1,1.234.589Z" transform="translate(62.134 33.637)" fill="#505051"/>
      <path id="Path_2436" data-name="Path 2436" d="M0,.364C.352.019.816.071,1.243,0,.884.3.417.243,0,.364Z" transform="translate(102.974 29.012)" fill="#505051"/>
      <path id="Path_2437" data-name="Path 2437" d="M1.124,0C.835.381.367.233,0,.374.3.037.757.152,1.124,0Z" transform="translate(92.287 30.298)" fill="#505051"/>
      <path id="Path_2438" data-name="Path 2438" d="M.743.179A.4.4,0,0,1,.256.6C-.1.564.04.224,0,0,.177.36.407.492.743.179Z" transform="translate(146.411 45.585)" fill="#2a8fbc"/>
      <path id="Path_2439" data-name="Path 2439" d="M.423,0A1.4,1.4,0,0,1,0,1.286,3.539,3.539,0,0,1,.423,0Z" transform="translate(97.061 41.575)" fill="#1f85b2"/>
      <path id="Path_2440" data-name="Path 2440" d="M1.152,0A1.52,1.52,0,0,1,0,.3,3.167,3.167,0,0,1,1.152,0Z" transform="translate(89.887 30.836)" fill="#505051"/>
      <path id="Path_2441" data-name="Path 2441" d="M0,0A1.818,1.818,0,0,1,1.135.344C.756.234.327.285,0,0Z" transform="translate(57.051 36.437)" fill="#505051"/>
      <path id="Path_2442" data-name="Path 2442" d="M0,0C.1.072.132.228.285.233.307.439.278.658.506.764c.02.172.023.344.028.516L.507,1.3C.359.859.012.5,0,0Z" transform="translate(144.497 55.158)" fill="#46a3cc"/>
      <path id="Path_2443" data-name="Path 2443" d="M0,.18c.3-.3.662-.137,1-.145C.7.287.343.16,0,.18Z" transform="translate(110.944 1.482)" fill="#505051"/>
      <path id="Path_2444" data-name="Path 2444" d="M0,0a2.943,2.943,0,0,1,1,.168A1.251,1.251,0,0,1,0,0Z" transform="translate(119.764 1.856)" fill="#505051"/>
      <path id="Path_2445" data-name="Path 2445" d="M.918,0C.677.29.324.283,0,.351A1.534,1.534,0,0,1,.918,0Z" transform="translate(97.239 29.025)" fill="#505051"/>
      <path id="Path_2446" data-name="Path 2446" d="M.688,0C.56.348.254.239,0,.258.186.064.474.129.688,0Z" transform="translate(99.838 28.266)" fill="#505051"/>
      <path id="Path_2447" data-name="Path 2447" d="M0,.043C.245.043.518-.1.7.16.466.134.193.276,0,.043Z" transform="translate(116.314 1.489)" fill="#505051"/>
      <path id="Path_2448" data-name="Path 2448" d="M.789.277A1.3,1.3,0,0,1,0,0C.27.067.595-.018.789.277Z" transform="translate(64.289 34.503)" fill="#505051"/>
      <path id="Path_2449" data-name="Path 2449" d="M0,.178C.178-.1.449.037.688.035.5.245.244.181,0,.178Z" transform="translate(74.414 36.937)" fill="#505051"/>
      <path id="Path_2450" data-name="Path 2450" d="M.643.04A.7.7,0,0,1,0,.028,1.694,1.694,0,0,1,.643.04Z" transform="translate(75.94 36.302)" fill="#505051"/>
      <path id="Path_2451" data-name="Path 2451" d="M.69,0C.512.222.237.2,0,.264.157,0,.435.027.69,0Z" transform="translate(99.086 28.584)" fill="#505051"/>
      <path id="Path_2452" data-name="Path 2452" d="M0,.244.1.006.639,0q.008.11.015.219Z" transform="translate(88.98 31.223)" fill="#505051"/>
      <path id="Path_2453" data-name="Path 2453" d="M.752.02A1.088,1.088,0,0,1,0,.124,1.471,1.471,0,0,1,.752.02Z" transform="translate(91.243 30.698)" fill="#505051"/>
      <path id="Path_2454" data-name="Path 2454" d="M.409,0C.5.3.208.356,0,.322.016.063.174-.014.409,0Z" transform="translate(102.663 57.639)" fill="#1f85b2"/>
      <path id="Path_2455" data-name="Path 2455" d="M.025.29,0,0a.715.715,0,0,1,.43.523C.254.522.165.359.025.29Z" transform="translate(156.104 56.58)" fill="#46a3cc"/>
      <path id="Path_2456" data-name="Path 2456" d="M.594.141C.377.163.142.255,0,.014.212-.009.431-.039.594.141Z" transform="translate(74.305 36.13)" fill="#505051"/>
      <path id="Path_2457" data-name="Path 2457" d="M0,0C.214.039.453.035.545.295.353.214.114.218,0,0Z" transform="translate(53.537 35.218)" fill="#505051"/>
      <path id="Path_2458" data-name="Path 2458" d="M0,0c.187.042.4.052.456.291A.585.585,0,0,1,0,0Z" transform="translate(52.225 34.476)" fill="#505051"/>
      <path id="Path_2459" data-name="Path 2459" d="M0,0c.21.017.4.07.467.3A.667.667,0,0,1,0,0Z" transform="translate(53.076 34.917)" fill="#505051"/>
      <path id="Path_2460" data-name="Path 2460" d="M0,.092A.579.579,0,0,1,.542.058,1.336,1.336,0,0,1,0,.092Z" transform="translate(76.473 36.769)" fill="#505051"/>
      <path id="Path_2461" data-name="Path 2461" d="M.409.256,0,.262A1.013,1.013,0,0,1,.5,0L.52.148.409.256Z" transform="translate(130.166 56.95)" fill="#2a8fbc"/>
      <path id="Path_2462" data-name="Path 2462" d="M0,.063A.275.275,0,0,1,.326.05.439.439,0,0,1,0,.063Z" transform="translate(75.832 36.86)" fill="#505051"/>
      <path id="Path_2463" data-name="Path 2463" d="M.444.081A.311.311,0,0,1,0,0Z" transform="translate(65.694 34.831)" fill="#505051"/>
      <path id="Path_2464" data-name="Path 2464" d="M.445.013A.363.363,0,0,1,0,.088.624.624,0,0,1,.445.013Z" transform="translate(93.614 30.199)" fill="#505051"/>
      <path id="Path_2465" data-name="Path 2465" d="M.454.024A.6.6,0,0,1,0,.094.531.531,0,0,1,.454.024Z" transform="translate(96.61 29.407)" fill="#505051"/>
      <path id="Path_2466" data-name="Path 2466" d="M.33,0A.214.214,0,0,1,0,.088.487.487,0,0,1,.33,0Z" transform="translate(100.726 28.14)" fill="#505051"/>
      <path id="Path_2467" data-name="Path 2467" d="M.023.368C-.089.124.218.2.211,0L.356.05C.342.255.167.3.023.368Z" transform="translate(130.658 56.724)" fill="#1f85b2"/>
      <path id="Path_2468" data-name="Path 2468" d="M0,0C.147-.011.2.081.225.2.071.222.054.092,0,0Z" transform="translate(51.59 34.036)" fill="#505051"/>
      <path id="Path_2469" data-name="Path 2469" d="M0,.009C.154-.016.23.049.232.2A.267.267,0,0,1,0,.009Z" transform="translate(51.147 33.609)" fill="#505051"/>
      <path id="Path_2470" data-name="Path 2470" d="M0,.056A.161.161,0,0,1,.223.042.231.231,0,0,1,0,.056Z" transform="translate(95.227 30.638)" fill="#505051"/>
      <path id="Path_2471" data-name="Path 2471" d="M0,.024A.276.276,0,0,1,.269.053.256.256,0,0,1,0,.024Z" transform="translate(118.885 1.745)" fill="#505051"/>
      <path id="Path_2472" data-name="Path 2472" d="M0,.053A.15.15,0,0,1,.213.04.2.2,0,0,1,0,.053Z" transform="translate(97.923 30.199)" fill="#505051"/>
      <path id="Path_2473" data-name="Path 2473" d="M.446.054A.379.379,0,0,1,0,.02.726.726,0,0,1,.446.054Z" transform="translate(76.795 36.329)" fill="#505051"/>
      <path id="Path_2474" data-name="Path 2474" d="M0,.044A.289.289,0,0,1,.271.029.336.336,0,0,1,0,.044Z" transform="translate(101.91 29.448)" fill="#505051"/>
      <path id="Path_2475" data-name="Path 2475" d="M0,.074A.145.145,0,0,1,.234.052.26.26,0,0,1,0,.074Z" transform="translate(98.548 30.096)" fill="#505051"/>
      <path id="Path_2476" data-name="Path 2476" d="M.242.029C.151.125.073.1,0,0Z" transform="translate(70.312 35.639)" fill="#505051"/>
      <path id="Path_2477" data-name="Path 2477" d="M.218.045C.132.115.065.077,0,.025A.184.184,0,0,1,.218.045Z" transform="translate(69.69 35.55)" fill="#505051"/>
      <path id="Path_2478" data-name="Path 2478" d="M0,.041a.148.148,0,0,1,.215.01A.223.223,0,0,1,0,.041Z" transform="translate(58.591 36.775)" fill="#505051"/>
      <path id="Path_2479" data-name="Path 2479" d="M.119.335A.386.386,0,0,1,0,.021L.027,0c.1.085.1.2.115.317Z" transform="translate(145.008 56.438)" fill="#46a3cc"/>
      <path id="Path_2480" data-name="Path 2480" d="M0,.191A.2.2,0,0,1,.219,0,.292.292,0,0,1,0,.191Z" transform="translate(123.78 8.396)" fill="#46a3cc"/>
      <path id="Path_2481" data-name="Path 2481" d="M.156,0C.157.108.088.138,0,.15A.167.167,0,0,1,.156,0Z" transform="translate(130.713 56.739)" fill="#2a8fbc"/>
      <path id="Path_2482" data-name="Path 2482" d="M0,.006C.063,0,.1.016.117.075A.084.084,0,0,1,0,.006Z" transform="translate(50.94 33.499)" fill="#505051"/>
      <path id="Path_2483" data-name="Path 2483" d="M.14.073A.1.1,0,0,1,0,.008.105.105,0,0,1,.14.073Z" transform="translate(63.649 34.274)" fill="#505051"/>
      <path id="Path_2484" data-name="Path 2484" d="M0,.007c.064-.014.107,0,.126.059A.091.091,0,0,1,0,.007Z" transform="translate(52.761 34.797)" fill="#505051"/>
      <path id="Path_2485" data-name="Path 2485" d="M0,.015A.1.1,0,0,1,.148.049.112.112,0,0,1,0,.015Z" transform="translate(58.99 36.852)" fill="#505051"/>
      <path id="Path_2486" data-name="Path 2486" d="M0,.012C.062-.009.108,0,.132.06A.1.1,0,0,1,0,.012Z" transform="translate(54.268 35.548)" fill="#505051"/>
      <path id="Path_2487" data-name="Path 2487" d="M0,.029A.091.091,0,0,1,.126.017.091.091,0,0,1,0,.029Z" transform="translate(104.923 28.853)" fill="#505051"/>
      <path id="Path_2488" data-name="Path 2488" d="M0,0C.066-.018.106.012.122.084.055.1.018.064,0,0Z" transform="translate(51.898 34.26)" fill="#505051"/>
      <path id="Path_2489" data-name="Path 2489" d="M.083.114,0,0Z" transform="translate(156.008 56.448)" fill="#46a3cc"/>
      <path id="Path_2490" data-name="Path 2490" d="M.137.011A.1.1,0,0,1,0,.064.1.1,0,0,1,.137.011Z" transform="translate(98.547 28.897)" fill="#505051"/>
      <path id="Path_2491" data-name="Path 2491" d="M0,.1.133,0Z" transform="translate(115.167 13.58)" fill="#2a8fbc"/>
      <path id="Path_2492" data-name="Path 2492" d="M0,.051.119,0Z" transform="translate(123.573 8.621)" fill="#46a3cc"/>
      <path id="Path_2493" data-name="Path 2493" d="M0,.01.149,0A.145.145,0,0,1,0,.01Z" transform="translate(109.425 1.727)" fill="#505051"/>
      <path id="Path_2494" data-name="Path 2494" d="M2.757,0C5.614.29,2.9,7.029.715,5.915-1.074,4.355.824.055,2.757,0Z" transform="translate(34.122 47.605)" fill="#f2f1f1"/>
      <path id="Path_2496" data-name="Path 2496" d="M.115.634C.1.52.1.4.005.313Q0,.156,0,0c.393.137.3.472.31.763Z" transform="translate(145.026 56.124)" fill="#2a8fbc"/>
      <path id="Path_2497" data-name="Path 2497" d="M0,.127a.825.825,0,0,1,.874,0Z" transform="translate(144.149 43.397)" fill="#1f85b2"/>
      <path id="Path_2498" data-name="Path 2498" d="M.209.437A.406.406,0,0,1,0,0,.363.363,0,0,1,.209.437Z" transform="translate(144.797 55.479)" fill="#2a8fbc"/>
      <path id="Path_2499" data-name="Path 2499" d="M0,0A.215.215,0,0,1,.119.21.234.234,0,0,1,0,0Z" transform="translate(145.441 43.631)" fill="#1f85b2"/>
      <path id="Path_2500" data-name="Path 2500" d="M0,0a.232.232,0,0,1,.1.214A.21.21,0,0,1,0,0Z" transform="translate(145.665 44.172)" fill="#1f85b2"/>
      <path id="Path_2501" data-name="Path 2501" d="M0,0A.231.231,0,0,1,.107.225.211.211,0,0,1,0,0Z" transform="translate(146.095 45.239)" fill="#1f85b2"/>
      <path id="Path_2502" data-name="Path 2502" d="M0,0,.106.1Z" transform="translate(146.202 45.461)" fill="#1f85b2"/>
      <path id="Path_2503" data-name="Path 2503" d="M11.575,15.47a24.894,24.894,0,0,1-7.348-.83C1.452,13.748.03,12.085,0,9.7A9.154,9.154,0,0,1,1.93,5.334a11.829,11.829,0,0,1,3.7-3.107A25.485,25.485,0,0,1,16.009,0a16.289,16.289,0,0,1,5.779.937A8.168,8.168,0,0,1,25.94,4.159c0,.017,0,.035,0,.053,0,.1,0,.208.106.263,0,.019,0,.038,0,.057a.271.271,0,0,0,.1.265c0,.173.006.35.01.521a5.6,5.6,0,0,1-.654,3.456H23.752c-4.023,0-8.183.006-12.285.014a.917.917,0,0,0-.215-.027.683.683,0,0,0-.585.327,1.521,1.521,0,0,0-.123,1.276,1.538,1.538,0,0,0,1.522.827,4.038,4.038,0,0,0,2.3-.777,1.968,1.968,0,0,1,1.284-.45h.037c.771.011,1.555.037,2.314.062,1.014.033,2.062.068,3.091.068,1.053,0,1.978-.037,2.828-.112.263.1.4.24.422.42.07.727-1.844,1.908-2.765,2.475-.155.1-.278.171-.354.222a22.43,22.43,0,0,1-9.4,2.37ZM13.523,4.383c-.721,0-1.7.658-1.77,1.193-.032.238.124.412.453.5A3.027,3.027,0,0,1,13.072,6c.215,0,.451.006.68.013h.021c.224.006.477.013.708.013.5,0,1.1-.03,1.217-.26a.619.619,0,0,0,.232-.526.594.594,0,0,0-.343-.432L15.477,4.7l0,0c-.076-.282-.622-.318-1.09-.318-.108,0-.212,0-.318,0h-.025c-.094,0-.18,0-.255,0-.058,0-.1,0-.141,0A1.149,1.149,0,0,0,13.523,4.383Z" transform="translate(108.731 42.71)" fill="#008ed0"/>
      <path id="Path_2504" data-name="Path 2504" d="M0,.114C4.791-.124,9.787.1,14.649.022,9.883.286,4.852.026,0,.114Z" transform="translate(119.587 51.457)" fill="#1f85b2"/>
      <path id="Path_2505" data-name="Path 2505" d="M0,1.942Q0,.97,0,0C.056.085.175.182.163.259-.017.81.432,1.505,0,1.942Z" transform="translate(134.887 47.723)" fill="#1f85b2"/>
      <path id="Path_2506" data-name="Path 2506" d="M.1.323C-.022.243,0,.117,0,0,.126.079.1.2.1.323Z" transform="translate(134.778 47.185)" fill="#2a8fbc"/>
      <path id="Path_2507" data-name="Path 2507" d="M.1.217A.216.216,0,0,1,0,0,.232.232,0,0,1,.1.217Z" transform="translate(134.673 46.967)" fill="#2a8fbc"/>
      <path id="Path_2509" data-name="Path 2509" d="M0,1.369C.186.035,2.205-.187,3.406.128a.4.4,0,0,0,.338.21l0,0,.111.1h0a.938.938,0,0,1,.111.956h0L0,1.369Z" transform="translate(120.461 47.076)" fill="#e1f3f7"/>
      <path id="Path_2510" data-name="Path 2510" d="M0,0,3.967.029c-.022.232-.2.215-.359.215C2.762.035.309.739,0,0Z" transform="translate(120.461 48.446)" fill="#46a3cc"/>
      <path id="Path_2511" data-name="Path 2511" d="M.063.957A1.544,1.544,0,0,0,0,0,.771.771,0,0,1,.063.957Z" transform="translate(124.319 47.516)" fill="#46a3cc"/>
      <path id="Path_2512" data-name="Path 2512" d="M.334.208A.4.4,0,0,1,0,.007C.166-.013.329-.024.334.208Z" transform="translate(123.868 47.203)" fill="#46a3cc"/>
      <path id="Path_2513" data-name="Path 2513" d="M.11.1,0,0Z" transform="translate(124.208 47.409)" fill="#46a3cc"/>
    </g>
    <g id="Group_1796" data-name="Group 1796" transform="translate(597.351 128)">
      <g id="Ellipse_61" data-name="Ellipse 61" transform="translate(0 1.242)" fill="none" stroke-miterlimit="10">
        <path d="M0,7.258a7.256,7.256,0,1,1,7.256,7.256A7.256,7.256,0,0,1,0,7.258Z" stroke="none"/>
        <path d="M 7.256120681762695 0.3023805618286133 C 3.420820236206055 0.3023805618286133 0.3005809783935547 3.422619819641113 0.3005809783935547 7.257920265197754 C 0.3005809783935547 11.09321975708008 3.420820236206055 14.21345996856689 7.256120681762695 14.21345996856689 C 11.09142112731934 14.21345996856689 14.21166038513184 11.09321975708008 14.21166038513184 7.257920265197754 C 14.21166038513184 3.422619819641113 11.09142112731934 0.3023805618286133 7.256120681762695 0.3023805618286133 M 7.256120681762695 0.00238037109375 C 11.26324081420898 0.00238037109375 14.5116605758667 3.250790596008301 14.5116605758667 7.257920265197754 C 14.5116605758667 11.26504039764404 11.26325035095215 14.51346015930176 7.256120681762695 14.51346015930176 C 3.249000549316406 14.51346015930176 0.0005807876586914063 11.26504993438721 0.0005807876586914063 7.257920265197754 C 0.0005807876586914063 3.250800132751465 3.248991012573242 0.00238037109375 7.256120681762695 0.00238037109375 Z" stroke="none" fill="#131313"/>
      </g>
      <text id="R" transform="translate(7.649 13)" font-size="12" font-family="OpenSans, Open Sans"><tspan x="-3.709" y="0">R</tspan></text>
    </g>
  </g>
</svg>
