<svg xmlns="http://www.w3.org/2000/svg" width="70.207" height="47.175" viewBox="0 0 70.207 47.175">
  <path id="Path_2715" data-name="Path 2715" d="M35.1,47.175A41.984,41.984,0,0,1,10.741,37.33a5.45,5.45,0,0,1-1.966-4.208V31.991l-6.768-4.23A4.222,4.222,0,0,1,0,24.138V11.219A4.212,4.212,0,0,1,2.2,7.482,4.22,4.22,0,0,1,6.538,7.6l3.5,2.186a91.965,91.965,0,0,0,11.46-4.2c2.911-1.294,4.883-2.35,6.468-3.2C30.654.943,32.278.073,35.077,0c.116,0,.232,0,.343,0,2.657,0,4.383.84,7.821,2.514l.014.007.017.008c1.656.806,3.716,1.809,6.536,3.053,3.416,1.508,6.915,2.914,10.4,4.178L63.67,7.6a4.272,4.272,0,0,1,6.537,3.622V24.572A4.275,4.275,0,0,1,68.2,28.2l-6.768,4.23v.759a5.5,5.5,0,0,1-1.839,4.1C54.524,41.8,46.161,47.175,35.1,47.175Zm0-14.261h.031a55.25,55.25,0,0,0,18.993-3.357l-.751-2.062A53.062,53.062,0,0,1,35.134,30.72h-.061A53.058,53.058,0,0,1,16.83,27.5l-.751,2.062a55.254,55.254,0,0,0,18.993,3.357ZM65.933,9.141a2.073,2.073,0,0,0-1.1.316l-3.4,2.125V29.838l5.605-3.5a2.082,2.082,0,0,0,.977-1.763V11.219a2.079,2.079,0,0,0-2.08-2.078Zm-61.66,0a2.081,2.081,0,0,0-2.079,2.078V24.138A2.054,2.054,0,0,0,3.171,25.9l5.605,3.5V11.582l-3.4-2.126A2.079,2.079,0,0,0,4.273,9.14Zm12.558,8.483-.752,2.061a55.233,55.233,0,0,0,18.993,3.357h.062a55.229,55.229,0,0,0,18.993-3.357l-.751-2.061a53.107,53.107,0,0,1-18.251,3.225h-.046A53.1,53.1,0,0,1,16.831,17.623Z" transform="translate(0 0)" fill="#059fe2"/>
</svg>
