<svg xmlns="http://www.w3.org/2000/svg" width="47.907" height="45.788" viewBox="0 0 47.907 45.788">
  <g id="my_item" data-name="my item" transform="translate(-0.003 0.001)">
    <path id="Path_2732" data-name="Path 2732" d="M0,0H6.876V8.292H0Z" transform="translate(20.398)" fill="#008ed0"/>
    <path id="Path_2733" data-name="Path 2733" d="M0,0H6.876V4.259H0Z" transform="translate(20.398 11.483)" fill="#008ed0"/>
    <path id="Path_2734" data-name="Path 2734" d="M0,0V15.222A4.825,4.825,0,0,1,2.653,16.7l5.268,5.718.042.043V21.3A4.443,4.443,0,0,1,12.4,16.86h7.378c.916.1,3.342-1.284,4.178-1.617a12.642,12.642,0,0,1,11.088.179l2.126,1.08a4.579,4.579,0,0,1,4.316-3.3h1.261V0H27.91V5.851a1.6,1.6,0,0,1-1.6,1.6H16.246a1.6,1.6,0,0,1-1.6-1.6V0Z" transform="translate(2.553 11.483)" fill="#008ed0"/>
    <path id="Path_2735" data-name="Path 2735" d="M0,8.292H14.834V2.212A2.053,2.053,0,0,0,13,0H0Z" transform="translate(30.466)" fill="#008ed0"/>
    <path id="Path_2736" data-name="Path 2736" d="M1.346,0A1.489,1.489,0,0,0,0,1.59V15.854a1.489,1.489,0,0,0,1.351,1.593H3.868a1.489,1.489,0,0,0,1.351-1.593V1.59A1.489,1.489,0,0,0,3.868,0Z" transform="translate(42.692 27.878)" fill="#008ed0"/>
    <path id="Path_2737" data-name="Path 2737" d="M14.653,0H1.525A1.706,1.706,0,0,0,0,1.838V8.292H14.653Z" transform="translate(2.553)" fill="#008ed0"/>
    <path id="Path_2738" data-name="Path 2738" d="M2.866,1.622C1.456.212-.944,2.055.4,3.695l7.187,8.713a12.758,12.758,0,0,0,9.873,4.654h8.129a38.8,38.8,0,0,0,8.975-1.054l4.943-1.182V2.726l-3.342-1.7A9.467,9.467,0,0,0,27.862.9L25.02,2.218a6.4,6.4,0,0,1-2.681.593H14.961a1.248,1.248,0,0,0-1.247,1.247V6.475H28.045a1.6,1.6,0,1,1,0,3.191H13.439a7.34,7.34,0,0,1-5.3-2.325Z" transform="translate(0 28.725)" fill="#008ed0"/>
  </g>
</svg>
