<svg xmlns="http://www.w3.org/2000/svg" width="50.132" height="50.13" viewBox="0 0 50.132 50.13">
  <g id="my_order" data-name="my order" transform="translate(-0.002 -0.004)">
    <path id="Path_2728" data-name="Path 2728" d="M31.791,4.031,9.044,15.677,0,11.228,22.349.195a1.831,1.831,0,0,1,1.629,0Z" transform="translate(1.88)" fill="#008ed0"/>
    <path id="Path_2729" data-name="Path 2729" d="M33.076,5.089,9.923,16.555l-8.67-4.271L0,11.647,22.778,0l1.254.635Z" transform="translate(15.158 6.141)" fill="#008ed0"/>
    <path id="Path_2730" data-name="Path 2730" d="M23.223,11.465,23.2,35.6,1.03,24.029A1.937,1.937,0,0,1,0,22.325V0L9.4,4.625v8.139a1.88,1.88,0,1,0,3.759,0V6.507l1.253.61Z" transform="translate(0 14.532)" fill="#008ed0"/>
    <path id="Path_2731" data-name="Path 2731" d="M23.148,0,.028,11.42,0,35.556l23.171-12.1Z" transform="translate(26.961 14.557)" fill="#008ed0"/>
  </g>
</svg>
