<svg xmlns="http://www.w3.org/2000/svg" width="38.386" height="53.699" viewBox="0 0 38.386 53.699">
  <g id="my_RFQ" data-name="my RFQ" transform="translate(0)">
    <path id="Path_2739" data-name="Path 2739" d="M32.248,53.7H6.139A6.145,6.145,0,0,1,0,47.561V6.139A6.146,6.146,0,0,1,6.139,0h3.3c.125,1.173.218,2.048.288,2.7l0,.024c.2,1.921.2,1.921.226,2.006l0,.019a6.8,6.8,0,0,0,6.59,5.212h5.278a6.837,6.837,0,0,0,4.582-1.79,6.144,6.144,0,0,0,2.044-3.631L28.943,0h3.3a6.145,6.145,0,0,1,6.138,6.139V47.561A6.145,6.145,0,0,1,32.248,53.7ZM8.285,38.7a1.573,1.573,0,0,0,0,3.146H20.032a1.573,1.573,0,0,0,0-3.146Zm21.8.01a1.588,1.588,0,0,0-1.188,2.6,1.67,1.67,0,0,0,1.229.52,1.489,1.489,0,0,0,1.546-1.405,1.555,1.555,0,0,0-.383-1.215A1.633,1.633,0,0,0,30.081,38.711Zm-21.8-6.722a1.573,1.573,0,0,0,0,3.146H20.032a1.573,1.573,0,0,0,0-3.146Zm21.8.012a1.485,1.485,0,0,0-1.548,1.406,1.5,1.5,0,0,0,.358,1.2,1.67,1.67,0,0,0,1.229.52,1.489,1.489,0,0,0,1.543-1.407,1.553,1.553,0,0,0-.378-1.214A1.632,1.632,0,0,0,30.084,32Zm.032-6.726a1.7,1.7,0,0,0-.171.009,1.575,1.575,0,0,0-.958,2.678,1.574,1.574,0,0,0,2.226,0,1.577,1.577,0,0,0-1.1-2.687Zm-21.831,0a1.573,1.573,0,0,0,0,3.146H20.032a1.573,1.573,0,0,0,0-3.146Zm0-6.712a1.573,1.573,0,0,0,0,3.146H20.032a1.573,1.573,0,0,0,0-3.146Zm21.789.01a1.487,1.487,0,0,0-1.54,1.407,1.5,1.5,0,0,0,.358,1.2,1.673,1.673,0,0,0,1.23.521,1.585,1.585,0,0,0,1.185-2.6A1.676,1.676,0,0,0,30.075,18.575ZM21.832,6.817H16.555a3.668,3.668,0,0,1-3.509-2.723L12.609,0H25.778l-.437,4.094A3.668,3.668,0,0,1,21.832,6.817Z" fill="#008ed0"/>
  </g>
</svg>
