<svg xmlns="http://www.w3.org/2000/svg" width="37.258" height="42.395" viewBox="0 0 37.258 42.395">
  <g id="notifications_1_" data-name="notifications (1)" transform="translate(0)">
    <g id="Group_2" data-name="Group 2">
      <path id="Path_3" data-name="Path 3" d="M18.629,42.4A3.73,3.73,0,0,1,14.9,38.669V37.427H1.241A1.21,1.21,0,0,1,.035,36.47a1.209,1.209,0,0,1,.65-1.395,7.7,7.7,0,0,0,4.282-6.928v-12A13.679,13.679,0,0,1,17.387,2.542v-1.3a1.242,1.242,0,0,1,2.485,0v1.3a13.679,13.679,0,0,1,12.42,13.605v12a7.7,7.7,0,0,0,4.282,6.928,1.243,1.243,0,0,1-.556,2.353H22.356v1.242A3.731,3.731,0,0,1,18.629,42.4Zm-1.242-4.968v1.242a1.242,1.242,0,0,0,2.485,0V37.427ZM18.629,4.968A11.191,11.191,0,0,0,7.451,16.147v12a10.225,10.225,0,0,1-2.584,6.8H32.392a10.225,10.225,0,0,1-2.584-6.8v-12A11.192,11.192,0,0,0,18.629,4.968Z" fill="#8d9494"/>
    </g>
  </g>
</svg>
