<svg xmlns="http://www.w3.org/2000/svg" width="54.035" height="54.035" viewBox="0 0 54.035 54.035">
  <g id="Group_2059" data-name="Group 2059" transform="translate(-0.001 -0.001)">
    <path id="Path_2747" data-name="Path 2747" d="M16.672,9.081V3.167A3.171,3.171,0,0,0,13.506,0H3.166A3.171,3.171,0,0,0,0,3.167V9.081Z" transform="translate(33.879 6.227)" fill="#059fe2"/>
    <path id="Path_2748" data-name="Path 2748" d="M0,0H16.672v2.95H0Z" transform="translate(33.879 18.47)" fill="#059fe2"/>
    <path id="Path_2749" data-name="Path 2749" d="M0,0V21.529a1.583,1.583,0,1,0,3.166,0V6.984l20.472.063V18.89a1.583,1.583,0,0,0,1.583,1.583h.95v1.056a1.583,1.583,0,1,0,3.166,0V20.474h12.03v1.056a1.583,1.583,0,1,0,3.166,0V20.474h.95a1.583,1.583,0,0,0,1.583-1.583V0Z" transform="translate(3.483 30.924)" fill="#059fe2"/>
    <path id="Path_2750" data-name="Path 2750" d="M52.453,24.59H24.209A13.861,13.861,0,0,0,22.3,20.158h4.821a3.17,3.17,0,0,0,3.166-3.166V3.167A3.17,3.17,0,0,0,27.124,0H6.65A3.17,3.17,0,0,0,3.484,3.167V16.992A3.17,3.17,0,0,0,6.65,20.158h4.821A13.863,13.863,0,0,0,9.566,24.59H1.584a1.583,1.583,0,1,0,0,3.166H52.453a1.583,1.583,0,1,0,0-3.166Z" fill="#059fe2"/>
  </g>
</svg>
