<svg width="21" height="18" viewBox="0 0 21 18" fill="none" xmlns="http://www.w3.org/2000/svg">
<path d="M1.27064 17.0892C1.45179 17.2454 1.69744 17.3332 1.95358 17.3332C2.20972 17.3332 2.45537 17.2454 2.63651 17.0892L5.72758 14.4225C7.19894 15.2286 8.90425 15.6599 10.6472 15.6667C14.825 15.6667 18.5942 13.1667 20.2469 9.28834C20.3271 9.10234 20.3271 8.89768 20.2469 8.71167C19.5965 7.14653 18.5245 5.73703 17.1191 4.59917L20.0286 2.08917C20.1209 2.0123 20.1945 1.92035 20.2451 1.81868C20.2957 1.71701 20.3224 1.60766 20.3235 1.49701C20.3246 1.38636 20.3001 1.27663 20.2516 1.17421C20.203 1.0718 20.1313 0.978755 20.0406 0.900511C19.9499 0.822267 19.842 0.760389 19.7233 0.718489C19.6046 0.676588 19.4774 0.655503 19.3492 0.656465C19.2209 0.657426 19.0941 0.680415 18.9763 0.724089C18.8584 0.767763 18.7518 0.831248 18.6627 0.91084L15.5717 3.57751C14.0989 2.77065 12.3918 2.33935 10.6472 2.33334C6.46944 2.33334 2.70026 4.83334 1.04751 8.71167C0.967359 8.89768 0.967359 9.10234 1.04751 9.28834C1.69935 10.8539 2.77304 12.2634 4.18011 13.4008L1.27064 15.9108C1.08955 16.0671 0.987825 16.279 0.987825 16.5C0.987825 16.721 1.08955 16.9329 1.27064 17.0892V17.0892ZM15.734 5.79001C16.8617 6.67843 17.7413 7.77596 18.3063 9.00001C16.8786 12.0475 13.9054 14 10.6472 14C9.41864 13.9952 8.21155 13.7217 7.13885 13.205L8.69694 11.8608C9.28575 12.1672 9.95963 12.3304 10.6472 12.3333C11.672 12.3333 12.6547 11.9822 13.3794 11.357C14.104 10.7319 14.511 9.88406 14.511 9.00001C14.5077 8.40683 14.3184 7.82547 13.9633 7.31751L15.734 5.79001ZM8.78774 9.42584C8.74192 9.28727 8.71756 9.14409 8.71529 9.00001C8.71529 8.55798 8.91883 8.13406 9.28114 7.8215C9.64344 7.50893 10.1348 7.33334 10.6472 7.33334C10.8142 7.3353 10.9802 7.35631 11.1408 7.39584L8.78774 9.42584ZM12.5067 8.57417C12.5525 8.71274 12.5769 8.85593 12.5791 9.00001C12.5791 9.44203 12.3756 9.86596 12.0133 10.1785C11.651 10.4911 11.1596 10.6667 10.6472 10.6667C10.4802 10.6647 10.3142 10.6437 10.1536 10.6042L12.5067 8.57417ZM2.98812 9.00001C4.41581 5.95251 7.38903 4.00001 10.6472 4.00001C11.8758 4.00479 13.0829 4.27832 14.1556 4.79501L12.5975 6.13917C12.0087 5.83284 11.3348 5.66958 10.6472 5.66667C9.62246 5.66667 8.63968 6.01786 7.91507 6.64298C7.19046 7.2681 6.78337 8.11595 6.78337 9.00001C6.78674 9.59319 6.97599 10.1745 7.33107 10.6825L5.56047 12.21C4.43268 11.3216 3.55317 10.2241 2.98812 9.00001V9.00001Z" fill="#999999"/>
</svg>
