<svg xmlns="http://www.w3.org/2000/svg" width="39.812" height="53.083" viewBox="0 0 39.812 53.083">
  <path id="pasword" d="M34.836,53.083H4.977A4.982,4.982,0,0,1,0,48.107V24.883a4.983,4.983,0,0,1,4.977-4.977H6.636V13.271a13.271,13.271,0,0,1,26.541,0v6.636h1.66a4.982,4.982,0,0,1,4.976,4.977V48.107A4.982,4.982,0,0,1,34.836,53.083Zm-14.93-24.33a4.41,4.41,0,0,0-2.212,8.232v5.039a2.212,2.212,0,0,0,4.424,0V36.986a4.41,4.41,0,0,0-2.212-8.232Zm0-24.33a8.857,8.857,0,0,0-8.847,8.847v6.636H28.753V13.271A8.857,8.857,0,0,0,19.906,4.424Z" transform="translate(0)" fill="#008ed0"/>
</svg>
