<svg id="icon" xmlns="http://www.w3.org/2000/svg" width="26.024" height="34.698" viewBox="0 0 26.024 34.698">
  <path id="Path_2720" data-name="Path 2720" d="M23.132,34.7H2.892A2.9,2.9,0,0,1,0,31.807V2.892A2.9,2.9,0,0,1,2.892,0h15.18a.721.721,0,0,1,.511.212L25.812,7.44a.721.721,0,0,1,.212.511V31.806A2.9,2.9,0,0,1,23.132,34.7ZM2.892,1.446A1.447,1.447,0,0,0,1.445,2.892V31.806a1.448,1.448,0,0,0,1.446,1.446h20.24a1.448,1.448,0,0,0,1.446-1.446V8.674H20.24a2.894,2.894,0,0,1-2.891-2.891V1.446Zm15.9,1.021V5.783A1.447,1.447,0,0,0,20.24,7.229h3.316Z" fill="#059fe2"/>
  <path id="Path_2721" data-name="Path 2721" d="M2.169,17.348C1.126,17.348,0,16.707,0,15.671c0-1.429,1.525-2.15,3.833-3.243l.035-.016c.507-.24,1.03-.489,1.592-.769.148-.074.31-.15.495-.232.216-.484.414-1,.589-1.518l.1-.307c.343-1.031.64-1.92.9-2.715a6.95,6.95,0,0,1-1.762-3.91C5.783.514,6.962,0,7.952,0c1.3,0,2.169.492,2.169,2.892a15.811,15.811,0,0,1-.957,3.679c.432.516.926,1.052,1.468,1.592A20.683,20.683,0,0,0,12.36,9.655a16.887,16.887,0,0,1,2.1-.258c.939,0,2.892,0,2.892,1.709,0,.869-.376,1.905-2.169,1.905-.683,0-2.114-.99-3.193-1.821A29.288,29.288,0,0,0,7.025,12.53a12.692,12.692,0,0,1-2.48,3.543A3.828,3.828,0,0,1,2.169,17.348ZM4.739,13.6l-.1.048-.184.087c-1.478.7-3.007,1.425-3.007,1.937a1.129,1.129,0,0,0,.724.232C2.576,15.9,3.642,15.188,4.739,13.6Zm9.719-2.756c-.088,0-.244.012-.439.033a5.2,5.2,0,0,0,1.214.694c.67,0,.67-.139.67-.464C15.839,10.97,15.619,10.843,14.458,10.843ZM8.639,8.17c-.215.649-.455,1.372-.723,2.174-.041.125-.084.249-.133.385.832-.264,1.756-.506,2.745-.722-.423-.362-.775-.678-.919-.823C9.258,8.834,8.932,8.493,8.639,8.17ZM7.952,1.445c-.253,0-.723,0-.723,1.516A4.4,4.4,0,0,0,8.1,5.149a11.175,11.175,0,0,0,.575-2.257C8.674,1.445,8.463,1.445,7.952,1.445Z" transform="translate(4.337 11.566)" fill="#059fe2"/>
</svg>
