<svg id="Group_2036" data-name="Group 2036" xmlns="http://www.w3.org/2000/svg" width="63.411" height="63.411" viewBox="0 0 63.411 63.411">
  <path id="Ellipse_71" data-name="Ellipse 71" d="M0,20A20,20,0,1,1,20,40,20,20,0,0,1,0,20Z" transform="translate(12.083 12.083)" fill="#fff"/>
  <path id="play-button_4_" data-name="play-button (4)" d="M31.705,63.411A31.714,31.714,0,0,1,19.364,2.492,31.713,31.713,0,0,1,44.046,60.919,31.506,31.506,0,0,1,31.705,63.411Zm-5.945-43.6A1.984,1.984,0,0,0,23.779,21.8V41.613a1.982,1.982,0,0,0,3.032,1.681l15.853-9.908a1.982,1.982,0,0,0,0-3.361L26.811,20.117A1.979,1.979,0,0,0,25.76,19.815Z" transform="translate(0 0)" fill="#008ed0"/>
</svg>
