<svg xmlns="http://www.w3.org/2000/svg" width="40.945" height="49.092" viewBox="0 0 40.945 49.092">
  <g id="profile_update" data-name="profile update" transform="translate(-0.004 0.002)">
    <path id="Path_2741" data-name="Path 2741" d="M11.823,23.648a11.442,11.442,0,0,0,8.361-3.464,11.441,11.441,0,0,0,3.464-8.361,11.443,11.443,0,0,0-3.465-8.361A11.445,11.445,0,0,0,11.823,0,11.442,11.442,0,0,0,3.462,3.462,11.442,11.442,0,0,0,0,11.822a11.442,11.442,0,0,0,3.465,8.361,11.445,11.445,0,0,0,8.361,3.464Z" transform="translate(8.344)" fill="#008ed0"/>
    <path id="Path_2742" data-name="Path 2742" d="M40.85,14.036a29.251,29.251,0,0,0-.4-3.1,24.455,24.455,0,0,0-.763-3.119,15.4,15.4,0,0,0-1.282-2.909,10.976,10.976,0,0,0-1.933-2.52A8.518,8.518,0,0,0,33.7.64,9.59,9.59,0,0,0,30.154,0a3.6,3.6,0,0,0-1.921.815c-.576.376-1.25.81-2,1.291a11.47,11.47,0,0,1-2.59,1.141,10.279,10.279,0,0,1-3.167.512,10.29,10.29,0,0,1-3.168-.512A11.436,11.436,0,0,1,14.72,2.1c-.745-.476-1.419-.911-2-1.292A3.592,3.592,0,0,0,10.8,0,9.58,9.58,0,0,0,7.252.641,8.514,8.514,0,0,0,4.475,2.386,10.977,10.977,0,0,0,2.543,4.905,15.44,15.44,0,0,0,1.262,7.815,24.521,24.521,0,0,0,.5,10.933a29.115,29.115,0,0,0-.4,3.1c-.065.939-.1,1.914-.1,2.9A8.154,8.154,0,0,0,2.424,23.1,8.711,8.711,0,0,0,8.661,25.38H32.292A8.709,8.709,0,0,0,38.528,23.1a8.15,8.15,0,0,0,2.421-6.168c0-.989-.034-1.965-.1-2.9Z" transform="translate(0 23.71)" fill="#008ed0"/>
  </g>
</svg>
