<svg xmlns="http://www.w3.org/2000/svg" width="50.976" height="50.987" viewBox="0 0 50.976 50.987">
  <path id="real-estate" d="M46.84,50.987H4.153a1.781,1.781,0,0,1-1.778-1.779V22.422a1.772,1.772,0,0,1-1.98-.557,1.775,1.775,0,0,1,.273-2.5L24.382.392A1.751,1.751,0,0,1,25.486,0,1.786,1.786,0,0,1,26.6.392L50.314,19.363a1.8,1.8,0,0,1,.284,2.5,1.745,1.745,0,0,1-1.387.664,1.667,1.667,0,0,1-.593-.107V49.208A1.781,1.781,0,0,1,46.84,50.987ZM19.555,35.572H31.413a1.781,1.781,0,0,1,1.778,1.779V47.429H45.049V19.706L25.484,4.055,5.919,19.706V47.429H17.777V37.351A1.781,1.781,0,0,1,19.555,35.572Zm1.779,3.558v8.3h8.3v-8.3Z" transform="translate(0)" fill="#fff"/>
</svg>
