<svg xmlns="http://www.w3.org/2000/svg" width="18.99" height="25.479" viewBox="0 0 18.99 25.479">
  <g id="rubbish-bin" transform="translate(0.004 0.001)">
    <g id="Group_1843" data-name="Group 1843">
      <path id="Path_2531" data-name="Path 2531" d="M14.106,19.274H2.136A1.279,1.279,0,0,1,.855,18.046L0,0H16.242l-.855,18.046A1.28,1.28,0,0,1,14.106,19.274ZM11.35,3.962a.521.521,0,0,0-.521.52v10.31a.521.521,0,0,0,.521.52h.833a.521.521,0,0,0,.521-.52V4.482a.521.521,0,0,0-.521-.52Zm-3.645,0a.521.521,0,0,0-.521.52v10.31a.521.521,0,0,0,.521.52h.832a.521.521,0,0,0,.521-.52V4.482a.521.521,0,0,0-.521-.52Zm-3.646,0a.521.521,0,0,0-.52.52v10.31a.521.521,0,0,0,.52.52h.833a.521.521,0,0,0,.521-.52V4.482a.521.521,0,0,0-.521-.52Z" transform="translate(1.374 6.204)" fill="#059fe2"/>
      <path id="Path_2532" data-name="Path 2532" d="M18.181,1.313H12.659V.268A.269.269,0,0,0,12.391,0h-5.8a.269.269,0,0,0-.268.269V1.313H.8a.805.805,0,0,0-.8.806V4.649H18.986V2.119A.805.805,0,0,0,18.181,1.313Z" fill="#059fe2"/>
    </g>
  </g>
</svg>
