<svg xmlns="http://www.w3.org/2000/svg" width="54.392" height="56.335" viewBox="0 0 54.392 56.335">
  <g id="icon" transform="translate(0.002 0.002)">
    <path id="Path_2686" data-name="Path 2686" d="M9.709,0A10.7,10.7,0,0,0,0,10.637v2.916a.972.972,0,0,0,.971.972H9.713c0-.036,0-.073,0-.109V12.58H3.884a1.945,1.945,0,0,1-1.942-1.944V6.749A1.945,1.945,0,0,1,3.884,4.805H9.709Z" transform="translate(17.483 5.877)" fill="#059fe2"/>
    <path id="Path_2687" data-name="Path 2687" d="M6.177,0H0V2.659A47.05,47.05,0,0,0,1.508,14.475,46.85,46.85,0,0,1,6.177,0Z" transform="translate(1.943 5.828)" fill="#059fe2"/>
    <path id="Path_2688" data-name="Path 2688" d="M0,0H1.945v3.88H0Z" transform="translate(25.253 12.626)" fill="#059fe2"/>
    <path id="Path_2689" data-name="Path 2689" d="M0,0H1.94v3.88H0Z" transform="translate(21.368 12.626)" fill="#059fe2"/>
    <path id="Path_2690" data-name="Path 2690" d="M24.7,46.616h6.541v-.184a21.91,21.91,0,0,1,1.131-6.884l-3.742-1.663a20.242,20.242,0,0,1-11.745-15.17l-1.036-6.208h-1.12a2.918,2.918,0,0,1-2.914-2.914V10.68A12.619,12.619,0,0,1,17.747,0H14.163L10.847,3.312,7.531,0H6.57A44.859,44.859,0,0,0,1.134,21.364H1.092c.019.382.042.765.042,1.148A21.911,21.911,0,0,1,0,29.424l6.574,3.288a2.935,2.935,0,0,0,1.3.307h5.882a4.862,4.862,0,0,1,4.857,4.856v5.264Z" transform="translate(3.724 5.827)" fill="#059fe2"/>
    <path id="Path_2691" data-name="Path 2691" d="M19.425,11.457H0V9.338A19.99,19.99,0,0,1,1.21,2.476L2.11,0,8.458,3.175a4.9,4.9,0,0,0,2.171.511h5.882A2.917,2.917,0,0,1,19.425,6.6v4.855ZM14.569,5.63V9.514h1.942V5.63Zm-3.885,0V9.514h1.942V5.63ZM6.8,5.63V9.514H8.742V5.63Zm-3.884,0V9.514H4.856V5.63Z" transform="translate(0.971 37.106)" fill="#059fe2"/>
    <path id="Path_2692" data-name="Path 2692" d="M.67,4.669l3.647,1.62A21.9,21.9,0,0,1,6.894,1.854,20.475,20.475,0,0,1,3.617,0L0,4.343c.224.11.445.223.673.325Z" transform="translate(32.469 37.274)" fill="#059fe2"/>
    <path id="Path_2693" data-name="Path 2693" d="M6.265,2.915A20.768,20.768,0,0,1,5.767,0H0L.486,2.915Z" transform="translate(21.543 22.339)" fill="#059fe2"/>
    <path id="Path_2694" data-name="Path 2694" d="M3.164,6.25,6.956,1.692A20.572,20.572,0,0,1,5.18,0L0,3.7A18.312,18.312,0,0,0,3.164,6.25Z" transform="translate(27.583 34.399)" fill="#059fe2"/>
    <path id="Path_2695" data-name="Path 2695" d="M14.566,6.392l2.512-2.51H29.137l0-3.883H0V3.881H12.055Z" fill="#059fe2"/>
    <path id="Path_2696" data-name="Path 2696" d="M26.939,3.887,20.139,0H0V2.916A2.917,2.917,0,0,0,2.913,5.829H13.6V1.945h5.115l6.128,3.5a2.908,2.908,0,0,0,1.444.384H38.878a4.805,4.805,0,0,1-.9-1.942Z" transform="translate(0.971 50.505)" fill="#059fe2"/>
    <path id="Path_2697" data-name="Path 2697" d="M10.684,5.828H2.913A2.914,2.914,0,0,1,2.913,0H13.6V2.913A2.917,2.917,0,0,1,10.684,5.828ZM1.942,1.942V3.885H3.885V1.942Z" transform="translate(40.793 50.505)" fill="#059fe2"/>
    <path id="Path_2698" data-name="Path 2698" d="M2.051,4.934c.113.15.236.293.353.441l5.211-3.72Q7.005.862,6.471,0L0,1.441A18.325,18.325,0,0,0,2.051,4.934Z" transform="translate(23.886 31.265)" fill="#059fe2"/>
    <path id="Path_2699" data-name="Path 2699" d="M0,0,.172,1.034A18.254,18.254,0,0,0,.827,3.672L7.012,2.3A20.7,20.7,0,0,1,6.039,0H0Z" transform="translate(22.353 27.194)" fill="#059fe2"/>
    <path id="Path_2700" data-name="Path 2700" d="M15.111,2.254,7.082.726A21.01,21.01,0,0,1,4.333,0,20,20,0,0,0,0,12.4v.184H2.036A4.865,4.865,0,0,1,6.8,8.7H17.481V5.116A2.917,2.917,0,0,0,15.111,2.254Z" transform="translate(36.908 39.859)" fill="#059fe2"/>
  </g>
</svg>
