<svg id="Group_1994" data-name="Group 1994" xmlns="http://www.w3.org/2000/svg" width="35.842" height="42.96" viewBox="0 0 35.842 42.96">
  <path id="Path_2684" data-name="Path 2684" d="M10.347,20.694a10.015,10.015,0,0,1-7.316-3.031A10.012,10.012,0,0,1,0,10.346,10.011,10.011,0,0,1,3.031,3.031,10.012,10.012,0,0,1,10.347,0a10.018,10.018,0,0,1,7.316,3.03,10.015,10.015,0,0,1,3.031,7.316,10.012,10.012,0,0,1-3.031,7.316A10.012,10.012,0,0,1,10.347,20.694Zm0-18.176A7.48,7.48,0,0,0,4.811,4.811a7.479,7.479,0,0,0-2.294,5.535,7.48,7.48,0,0,0,2.294,5.536,7.483,7.483,0,0,0,5.536,2.294,7.48,7.48,0,0,0,5.536-2.294,7.48,7.48,0,0,0,2.294-5.536,7.479,7.479,0,0,0-2.294-5.535A7.48,7.48,0,0,0,10.347,2.517Z" transform="translate(7.302)" fill="#8d9494"/>
  <path id="Path_2685" data-name="Path 2685" d="M28.264,22.208H7.578a7.627,7.627,0,0,1-5.459-1.991A7.135,7.135,0,0,1,0,14.82c0-.862.029-1.716.086-2.536A25.574,25.574,0,0,1,.434,9.568,21.4,21.4,0,0,1,1.1,6.839,13.472,13.472,0,0,1,2.223,4.294,9.618,9.618,0,0,1,3.914,2.089,7.461,7.461,0,0,1,6.345.563,8.377,8.377,0,0,1,9.447,0a3.152,3.152,0,0,1,1.681.713c.461.3,1.018.66,1.753,1.13a9.96,9.96,0,0,0,2.265,1,8.987,8.987,0,0,0,2.773.448,8.984,8.984,0,0,0,2.772-.448,10.035,10.035,0,0,0,2.267-1c.7-.448,1.273-.818,1.751-1.129A3.148,3.148,0,0,1,26.393,0a8.4,8.4,0,0,1,3.1.562,7.462,7.462,0,0,1,2.43,1.527,9.573,9.573,0,0,1,1.692,2.205,13.48,13.48,0,0,1,1.122,2.545,21.542,21.542,0,0,1,.668,2.729,25.453,25.453,0,0,1,.347,2.714c.058.823.087,1.677.087,2.538a7.133,7.133,0,0,1-2.119,5.4A7.63,7.63,0,0,1,28.264,22.208ZM9.255,2.52A5.805,5.805,0,0,0,7.272,2.9,4.961,4.961,0,0,0,5.655,3.908,7.136,7.136,0,0,0,4.412,5.537,11,11,0,0,0,3.5,7.607a19,19,0,0,0-.588,2.407A22.827,22.827,0,0,0,2.6,12.458c-.053.764-.08,1.559-.08,2.363a4.655,4.655,0,0,0,1.337,3.573,5.134,5.134,0,0,0,3.723,1.3H28.263a5.138,5.138,0,0,0,3.724-1.3,4.662,4.662,0,0,0,1.337-3.573c0-.811-.028-1.606-.081-2.362a22.767,22.767,0,0,0-.315-2.446,18.755,18.755,0,0,0-.587-2.406,10.963,10.963,0,0,0-.913-2.069,7.124,7.124,0,0,0-1.243-1.63A4.966,4.966,0,0,0,28.569,2.9a5.816,5.816,0,0,0-1.984-.382c-.084.045-.24.134-.5.3-.514.335-1.093.709-1.772,1.142a12.464,12.464,0,0,1-2.847,1.273,11.521,11.521,0,0,1-3.547.57,11.529,11.529,0,0,1-3.547-.57,12.475,12.475,0,0,1-2.846-1.272c-.7-.446-1.278-.82-1.773-1.143-.258-.168-.414-.257-.5-.3Z" transform="translate(0 20.751)" fill="#8d9494"/>
</svg>
