<svg xmlns="http://www.w3.org/2000/svg" width="58.434" height="48.349" viewBox="0 0 58.434 48.349">
  <g id="users_3_" data-name="users (3)" transform="translate(1.503 1.83)">
    <path id="Path_2552" data-name="Path 2552" d="M40.308,15.114V10.076A10.076,10.076,0,0,0,30.23,0H10.075A10.076,10.076,0,0,0,0,10.076v5.038" transform="translate(0 29.905)" fill="none" stroke="#008ed0" stroke-linecap="round" stroke-linejoin="round" stroke-miterlimit="10" stroke-width="3"/>
    <path id="Ellipse_70" data-name="Ellipse 70" d="M0,9.5A9.76,9.76,0,0,1,10,0,9.76,9.76,0,0,1,20,9.5,9.76,9.76,0,0,1,10,19,9.76,9.76,0,0,1,0,9.5Z" transform="translate(10.713 0.364)" fill="none" stroke="#008ed0" stroke-linecap="round" stroke-linejoin="round" stroke-miterlimit="10" stroke-width="3"/>
    <path id="Path_2553" data-name="Path 2553" d="M7.562,14.786V9.748A10.079,10.079,0,0,0,0,0" transform="translate(47.869 30.233)" fill="none" stroke="#008ed0" stroke-linecap="round" stroke-linejoin="round" stroke-miterlimit="10" stroke-width="3"/>
    <path id="Path_2554" data-name="Path 2554" d="M0,0A10.079,10.079,0,0,1,7.574,9.761,10.079,10.079,0,0,1,0,19.527" transform="translate(37.791)" fill="none" stroke="#008ed0" stroke-linecap="round" stroke-linejoin="round" stroke-miterlimit="10" stroke-width="3"/>
  </g>
</svg>
