<svg xmlns="http://www.w3.org/2000/svg" width="45.432" height="40.095" viewBox="0 0 45.432 40.095">
  <g id="whishlist" transform="translate(0.003 -0.003)">
    <g id="Group_2054" data-name="Group 2054">
      <path id="Path_2740" data-name="Path 2740" d="M33.361,0a10.759,10.759,0,0,0-6.718,2.321,15.3,15.3,0,0,0-3.93,4.725,15.3,15.3,0,0,0-3.93-4.725A10.759,10.759,0,0,0,12.065,0C5.185,0,0,5.628,0,13.088,0,21.147,6.47,26.661,16.268,35.009c1.664,1.418,3.55,3.024,5.51,4.738a1.42,1.42,0,0,0,1.869,0c1.96-1.714,3.846-3.321,5.511-4.739,9.8-8.347,16.27-13.861,16.27-21.92C45.429,5.628,40.241,0,33.361,0Z" fill="#008ed0"/>
    </g>
  </g>
</svg>
